SplineFontDB: 3.2
FontName: Apple_Univers
FullName: Apple_Univers
FamilyName: Univers
Weight: Regular
Copyright: 
FontLog: "added new glyphs and kerning for lowercase characters"
Version: 
ItalicAngle: 0
UnderlinePosition: 0
UnderlineWidth: 0
Ascent: 800
Descent: 200
InvalidEm: 0
sfntRevision: 0x00010000
LayerCount: 2
Layer: 0 0 "Back" 1
Layer: 1 0 "Fore" 0
XUID: [1021 29 1481517791 22729]
StyleMap: 0x0040
FSType: 0
OS2Version: 3
OS2_WeightWidthSlopeOnly: 0
OS2_UseTypoMetrics: 0
CreationTime: 1734509409
ModificationTime: 1740418442
PfmFamily: 17
TTFWeight: 400
TTFWidth: 5
LineGap: 0
VLineGap: 0
Panose: 2 0 5 3 0 0 0 0 0 0
OS2TypoAscent: 701
OS2TypoAOffset: 0
OS2TypoDescent: -181
OS2TypoDOffset: 0
OS2TypoLinegap: 49
OS2WinAscent: 893
OS2WinAOffset: 0
OS2WinDescent: 262
OS2WinDOffset: 0
HheadAscent: 893
HheadAOffset: 0
HheadDescent: -262
HheadDOffset: 0
OS2SubXSize: 650
OS2SubYSize: 700
OS2SubXOff: 0
OS2SubYOff: 140
OS2SupXSize: 650
OS2SupYSize: 700
OS2SupXOff: 0
OS2SupYOff: 480
OS2StrikeYSize: 49
OS2StrikeYPos: 258
OS2CapHeight: 701
OS2XHeight: 488
OS2Vendor: 'PfEd'
OS2CodePages: 00000001.00000000
OS2UnicodeRanges: 00000001.00000000.00000000.00000000
Lookup: 258 0 0 "'kern' Horizontal Kerning in Latin lookup 0" { "'kern' Horizontal Kerning in Latin lookup 0-1" [150,5,2] } ['kern' ('DFLT' <'dflt' > 'latn' <'dflt' > ) ]
MarkAttachClasses: 1
DEI: 91125

StartChar: .notdef
Encoding: 0 0 0
Width: 254
GlyphClass: 1
Flags: W
HStem: -359.916 1.11328
VStem: 0.696289 0.416016
LayerCount: 2
Fore
SplineSet
0.6962890625 -358.802734375 m 2
 0.0869140625 -358.98046875 -0.0458984375 -359.514648438 0.0126953125 -359.916015625 c 0
 0.1025390625 -360.540039062 0.4140625 -360.7109375 1.1123046875 -360.495117188 c 2
 2.9990234375 -359.916015625 l 2
 3.62890625 -359.715820312 3.845703125 -359.107421875 3.6826171875 -358.586914062 c 0
 3.6005859375 -358.340820312 3.3408203125 -357.985351562 2.701171875 -358.177734375 c 2
 0.6962890625 -358.802734375 l 2
3.4443359375 -358.861328125 m 0
 3.4521484375 -359.025390625 3.458984375 -359.43359375 2.916015625 -359.596679688 c 2
 0.8447265625 -360.236328125 l 2
 0.3984375 -360.376953125 0.302734375 -359.983398438 0.2880859375 -359.833984375 c 0
 0.2587890625 -359.588867188 0.3388671875 -359.248046875 0.7265625 -359.127929688 c 2
 2.814453125 -358.482421875 l 2
 3.20703125 -358.36328125 3.421875 -358.565429688 3.4443359375 -358.861328125 c 0
EndSplineSet
Validated: 1
EndChar

StartChar: A
Encoding: 65 65 1
Width: 502
GlyphClass: 1
Flags: W
DStem2: -12.4473 7.08203 58.9551 5.74316 0.480412 0.877043<33.1283 236.515 314.036 755.513> 351.655 7.08203 417.125 7.08203 0.0521018 0.998642<3.41109 177.998 247.882 643.999>
LayerCount: 2
Fore
SplineSet
362.950195312 697.961914062 m 5
 362.950195312 692.409179688 l 5
 -12.447265625 7.08203125 l 5
 -18 0 l 5
 -9.5771484375 2.6796875 l 5
 53.021484375 2.6796875 l 5
 58.955078125 -1.5322265625 l 5
 58.955078125 5.7431640625 l 5
 152.756835938 186.262695312 l 5
 152.756835938 196.025390625 l 5
 161.37109375 190.474609375 l 5
 357.399414062 190.474609375 l 5
 368.694335938 196.025390625 l 5
 362.950195312 184.732421875 l 5
 351.655273438 7.08203125 l 5
 346.104492188 -1.5322265625 l 5
 354.52734375 2.6796875 l 5
 414.446289062 2.6796875 l 5
 422.868164062 -1.5322265625 l 5
 417.125 7.08203125 l 5
 452.73046875 689.537109375 l 5
 456.943359375 697.961914062 l 5
 448.520507812 693.749023438 l 5
 367.353515625 693.749023438 l 5
 362.950195312 697.961914062 l 5
394.53515625 649.719726562 m 5
 391.665039062 624.258789062 l 5
 368.694335938 254.412109375 l 5
 373.287109375 242.92578125 l 5
 361.609375 248.670898438 l 5
 192.57421875 248.670898438 l 5
 176.6875 242.92578125 l 5
 189.705078125 254.412109375 l 5
 385.73046875 624.258789062 l 5
 394.53515625 649.719726562 l 5
EndSplineSet
EndChar

StartChar: B
Encoding: 66 66 2
Width: 459
GlyphClass: 1
Flags: W
HStem: -0.545898 21G<13.7373 16.6172> 2.52246 58.3154<103.701 282.818> 334.376 55.6309<204.997 321.854> 362.769 27.2383<324.114 347.928> 636.5 58.3096<279.226 427.612>
DStem2: 13.7373 6.54883 98.1514 66.3994 0.29625 0.955111<82.1716 357.939 428.425 673.949>
LayerCount: 2
Fore
SplineSet
355.560546875 362.768554688 m 6x98
 324.114257812 362.768554688 l 5
 354.2265625 355.473632812 l 6
 416.951171875 328.427734375 431.159179688 268.776367188 399.701171875 171.90625 c 4
 351.552734375 12.30859375 277.30859375 2.5224609375 160.295898438 2.5224609375 c 6
 16.6171875 2.5224609375 l 5x58
 8 -0.5458984375 l 5
 13.7373046875 6.548828125 l 5
 225.908203125 690.588867188 l 5
 223.21484375 699.223632812 l 5
 230.310546875 694.809570312 l 5
 374.177734375 694.809570312 l 6
 492.338867188 694.809570312 525.1484375 616.353515625 486.783203125 488.024414062 c 4
 465.299804688 418.393554688 411.380859375 376.961914062 355.560546875 362.768554688 c 6x98
357.481445312 636.5 m 6
 279.225585938 636.5 l 5
 269.064453125 643.592773438 l 5
 271.944335938 632.083984375 l 5
 200.758789062 397.100585938 l 5
 192.142578125 385.3984375 l 5
 204.997070312 390.006835938 l 5
 280.559570312 390.006835938 l 6x28
 340.409179688 390.006835938 397.38671875 412.831054688 427.120117188 507.974609375 c 4
 461.455078125 617.888671875 429.030273438 636.5 357.481445312 636.5 c 6
263.490234375 334.375976562 m 6
 186.3828125 334.375976562 l 5
 176.407226562 341.471679688 l 5
 179.286132812 329.961914062 l 5
 98.1513671875 66.3994140625 l 5
 89.5107421875 55.083984375 l 5
 103.701171875 60.837890625 l 5
 179.286132812 60.837890625 l 6x68
 263.497070312 60.837890625 300.508789062 63.7119140625 337.53125 186.095703125 c 4
 368.797851562 286.03515625 343.2890625 334.375976562 263.490234375 334.375976562 c 6
EndSplineSet
EndChar

StartChar: C
Encoding: 67 67 3
Width: 417
GlyphClass: 1
Flags: W
DStem2: 48.6113 182.012 111.956 173.318 0.296097 0.955158<-78.9617 493.439> 298.315 154.582 358.573 136.241 0.294804 0.955558<-90.9663 36.2132 399.197 484.88>
LayerCount: 2
Fore
SplineSet
471.943359375 514.569335938 m 5
 413.0546875 514.569335938 l 5
 404.166992188 512.057617188 l 5
 410.34375 517.46875 l 6
 441.62890625 617.893554688 421.733398438 642.416015625 387.358398438 652.458007812 c 4
 332.704101562 669.646484375 262.599609375 656.901367188 229.3828125 549.330078125 c 6
 111.956054688 173.318359375 l 6
 90.3271484375 101.668945312 97.6787109375 64.3935546875 140.552734375 49.91015625 c 4
 193.46875 32.720703125 266.836914062 49.908203125 298.315429688 154.58203125 c 6
 309.7265625 188.958984375 l 5
 306.827148438 197.65234375 l 5
 314.158203125 193.403320312 l 5
 373.073242188 193.403320312 l 5
 381.370117188 196.297851562 l 5
 375.571289062 188.958984375 l 5
 358.573242188 136.241210938 l 6
 314.154296875 -10.3408203125 176.266601562 -18.8408203125 111.956054688 1.05078125 c 4
 34.3203125 25.578125 20.0283203125 88.5400390625 48.611328125 182.01171875 c 6
 169.125976562 570.771484375 l 6
 214.896484375 718.319335938 350.0859375 724.112304688 411.499023438 707.1171875 c 4
 504.970703125 678.340820312 499.169921875 592.208984375 476.1875 517.46875 c 6
 479.087890625 508.969726562 l 5
 471.943359375 514.569335938 l 5
  Spiro
    471.943 514.569 v
    413.055 514.569 v
    404.167 512.058 v
    410.344 517.469 ]
    425.927 594.811 o
    415.528 635.341 o
    387.359 652.458 o
    329.552 657.275 o
    272.905 627.644 o
    229.383 549.33 [
    111.956 173.318 ]
    100.231 112.748 o
    109.298 72.3887 o
    140.553 49.9101 o
    197.918 46.1352 o
    255.235 77.1557 o
    298.316 154.582 [
    309.726 188.959 v
    306.827 197.652 v
    314.159 193.404 v
    373.073 193.404 v
    381.37 196.298 v
    375.571 188.959 v
    358.574 136.241 ]
    289.274 31.6904 o
    194.511 -5.32567 o
    111.956 1.05076 o
    54.715 38.0468 o
    35.0763 99.0757 o
    48.6117 182.012 [
    169.126 570.772 ]
    238.572 675.408 o
    331.631 712.121 o
    411.5 707.117 o
    474.884 661.828 o
    490.4 593.385 o
    476.188 517.469 [
    479.088 508.969 v
    0 0 z
  EndSpiro
EndSplineSet
EndChar

StartChar: D
Encoding: 68 68 4
Width: 484
VWidth: 1006
GlyphClass: 1
Flags: W
HStem: 1.5918 59.2207<171.445 288.145> 645.631 59.2236<369.566 445.156>
DStem2: 13.6484 6.07129 98.9756 66.8525 0.296551 0.955017<83.351 684.4> 13.6484 6.07129 413.009 175.166 0.296551 0.955017<101.703 727.207> 353.786 196.984 413.009 175.166 0.294315 0.955709<-119.934 420.923>
LayerCount: 2
Fore
SplineSet
226.186523438 709.139648438 m 1
 229.302734375 700.56640625 l 1
 13.6484375 6.0712890625 l 1
 8 -1.1357421875 l 1
 16.3759765625 1.591796875 l 1
 171.4453125 1.591796875 l 2
 275.66796875 1.591796875 360.995117188 4.70703125 413.008789062 175.166015625 c 2
 518.595703125 518.03125 l 2
 551.908203125 625.370117188 492.4921875 704.854492188 369.56640625 704.854492188 c 2
 233.588867188 704.854492188 l 1
 226.186523438 709.139648438 l 1
272.745117188 652.837890625 m 1
 282.875 645.630859375 l 1
 369.56640625 645.630859375 l 2
 418.853515625 645.630859375 489.763671875 636.865234375 452.359375 519.58984375 c 2
 353.786132812 196.984375 l 2
 315.993164062 74.05859375 281.318359375 60.8125 188.783203125 60.8125 c 2
 104.819335938 60.8125 l 1
 90.404296875 55.1640625 l 1
 98.9755859375 66.8525390625 l 1
 275.668945312 641.345703125 l 1
 272.745117188 652.837890625 l 1
EndSplineSet
EndChar

StartChar: E
Encoding: 69 69 5
Width: 388
VWidth: 989
GlyphClass: 1
Flags: W
HStem: -20.4629 20G<7 300.958>
DStem2: 12.627 3.80762 97.6133 64.1504 0.296385 0.955069<82.8201 358.896 429.953 681.353>
LayerCount: 2
Fore
SplineSet
224.31640625 704.2578125 m 1
 227.2265625 695.33203125 l 1
 12.626953125 3.8076171875 l 1
 7 -3.373046875 l 1
 15.3427734375 -0.462890625 l 1
 293.77734375 -0.462890625 l 1
 300.958007812 -4.923828125 l 1
 299.018554688 3.8076171875 l 1
 315.122070312 54.25390625 l 1
 320.749023438 61.43359375 l 1
 312.211914062 58.5234375 l 1
 103.045898438 58.5234375 l 1
 88.8828125 52.703125 l 1
 97.61328125 64.150390625 l 1
 178.13671875 328.225585938 l 1
 175.2265625 339.48046875 l 1
 185.315429688 332.301757812 l 1
 377.2109375 332.301757812 l 1
 382.836914062 328.225585938 l 1
 380.897460938 336.763671875 l 1
 397.00390625 384.30078125 l 1
 402.82421875 391.48046875 l 1
 394.092773438 388.5703125 l 1
 203.749023438 388.5703125 l 1
 190.94140625 384.30078125 l 1
 199.672851562 395.942382812 l 1
 273.211914062 636.34765625 l 1
 270.30078125 647.990234375 l 1
 280.389648438 640.809570312 l 1
 480.630859375 640.809570312 l 1
 487.809570312 636.34765625 l 1
 485.870117188 645.2734375 l 1
 501.973632812 695.33203125 l 1
 502.75 695.33203125 l 1
 508.376953125 702.706054688 l 1
 499.645507812 699.795898438 l 1
 231.688476562 699.795898438 l 1
 224.31640625 704.2578125 l 1
EndSplineSet
EndChar

StartChar: F
Encoding: 70 70 6
Width: 387
GlyphClass: 1
Flags: W
HStem: -21.4316 20G<8 81.3594> 693.066 6.96875<501.583 502.744>
DStem2: 13.6143 3.01953 79.4248 3.01953 0.296549 0.955018<19.5161 357.857 428.625 679.787>
LayerCount: 2
Fore
SplineSet
225.176757812 701.583984375 m 5
 227.885742188 693.06640625 l 5
 13.6142578125 3.01953125 l 5
 8 -4.140625 l 5
 16.517578125 -1.431640625 l 5
 75.7470703125 -1.431640625 l 5
 81.359375 -5.689453125 l 5
 79.4248046875 3.01953125 l 5
 178.721679688 326.462890625 l 5
 175.819335938 337.880859375 l 5
 185.8828125 330.913085938 l 5
 377.122070312 330.913085938 l 5
 382.735351562 326.462890625 l 5
 380.799804688 334.977539062 l 5
 396.864257812 382.59375 l 5
 402.672851562 389.756835938 l 5
 393.961914062 386.659179688 l 5
 204.465820312 386.659179688 l 5
 191.108398438 382.59375 l 5
 199.819335938 394.013671875 l 5
 273.178710938 634.225585938 l 5
 270.469726562 645.645507812 l 5
 280.341796875 638.482421875 l 5
 480.290039062 638.482421875 l 5
 487.453125 634.225585938 l 5
 485.516601562 642.740234375 l 5
 501.583007812 693.06640625 l 5
 502.744140625 693.06640625 l 5
 508.1640625 700.03515625 l 5
 499.646484375 697.326171875 l 5
 232.338867188 697.326171875 l 5
 225.176757812 701.583984375 l 5
EndSplineSet
EndChar

StartChar: G
Encoding: 71 71 7
Width: 452
VWidth: 677
GlyphClass: 1
Flags: W
HStem: -10.874 54.0342<131.799 290.905> 289.39 55.5791<292.968 356.968>
DStem2: 63.8027 218.304 124.925 201.053 0.29515 0.955451<-101.23 439.723> 294.325 64.6221 345.669 21.8857 0.277888 0.960613<0 229.214 489.228 568.231>
LayerCount: 2
Fore
SplineSet
486.508789062 514.543945312 m 5
 428.264648438 514.543945312 l 5
 419.631835938 511.48046875 l 5
 425.200195312 517.03515625 l 6
 446.662109375 588.318359375 445.328125 629.709960938 393.971679688 645.231445312 c 4
 345.68359375 660.944335938 263.090820312 645.231445312 227.44921875 532.94140625 c 6
 124.924804688 201.052734375 l 6
 93.6904296875 98.7255859375 113.609375 43.16015625 196.198242188 43.16015625 c 4
 225.899414062 43.16015625 252.9375 48.9072265625 287.23828125 58.6796875 c 6
 297.202148438 53.1259765625 l 5
 294.325195312 64.6220703125 l 5
 361.388671875 283.833984375 l 5
 369.622070312 295.33203125 l 5
 356.967773438 289.389648438 l 5
 275.729492188 289.389648438 l 5
 267.09765625 286.7109375 l 5
 273.0390625 293.798828125 l 5
 288.572265625 340.559570312 l 5
 285.881835938 348.991210938 l 5
 292.967773438 344.96875 l 5
 442.439453125 344.96875 l 5
 451.071289062 347.833984375 l 5
 445.31640625 340.559570312 l 5
 345.668945312 21.8857421875 l 5
 348.359375 16.1435546875 l 5
 342.791992188 19.009765625 l 6
 302.934570312 1.763671875 245.829101562 -10.8740234375 186.233398438 -10.8740234375 c 4
 105.177734375 -10.8740234375 9.765625 36.0712890625 63.802734375 218.303710938 c 6
 166.3046875 545.595703125 l 6
 213.250976562 699.27734375 348.359375 719.204101562 425.200195312 694.868164062 c 4
 499.166992188 670.916015625 519.290039062 612.462890625 490.930664062 517.03515625 c 6
 493.596679688 508.416015625 l 5
 486.508789062 514.543945312 l 5
EndSplineSet
EndChar

StartChar: H
Encoding: 72 72 8
Width: 495
GlyphClass: 1
Flags: W
HStem: -19.2822 20G<6 80.0537 279.74 355.357> 706.075 21G<225.227 300.844 500.533 574.584>
DStem2: 12.0566 5.21191 78.0996 5.21191 0.297283 0.95479<19.6334 361.166 432.896 729.316> 285.603 5.21191 352.426 5.21191 0.297285 0.954789<19.8656 340.692 410.465 729.548>
LayerCount: 2
Fore
SplineSet
225.2265625 710.374023438 m 5
 228.158203125 701.776367188 l 5
 12.056640625 5.2119140625 l 5
 6 -2.0185546875 l 5
 14.79296875 0.7177734375 l 5
 74.19140625 0.7177734375 l 5
 80.0537109375 -3.5810546875 l 5
 78.099609375 5.2119140625 l 5
 178.333984375 331.708007812 l 5
 175.208007812 343.237304688 l 5
 185.563476562 336.202148438 l 5
 381.540039062 336.202148438 l 5
 395.998046875 341.869140625 l 5
 387.401367188 330.33984375 l 5
 285.602539062 5.2119140625 l 5
 279.740234375 -2.0185546875 l 5
 288.534179688 0.7177734375 l 5
 347.931640625 0.7177734375 l 5
 355.357421875 -3.5810546875 l 5
 352.42578125 5.2119140625 l 5
 568.721679688 701.776367188 l 5
 568.918945312 701.776367188 l 5
 574.583984375 708.811523438 l 5
 565.79296875 706.075195312 l 5
 506.587890625 706.075195312 l 5
 500.533203125 710.374023438 l 5
 502.486328125 701.776367188 l 5
 408.112304688 396.96875 l 5
 411.043945312 385.44140625 l 5
 402.4453125 392.474609375 l 5
 205.1015625 392.474609375 l 5
 191.81640625 388.372070312 l 5
 200.607421875 399.899414062 l 5
 294.981445312 701.776367188 l 5
 300.84375 708.811523438 l 5
 292.049804688 706.075195312 l 5
 232.45703125 706.075195312 l 5
 225.2265625 710.374023438 l 5
EndSplineSet
EndChar

StartChar: I
Encoding: 73 73 9
Width: 217
GlyphClass: 1
Flags: W
HStem: 703.682 21G<225.238 300.513>
DStem2: 12.835 5.98438 78.7725 5.98438 0.296874 0.954917<19.5751 725.951>
LayerCount: 2
Fore
SplineSet
225.23828125 708.154296875 m 5
 228.350585938 699.20703125 l 5
 12.8349609375 5.984375 l 5
 7 -1.212890625 l 5
 15.7529296875 1.7041015625 l 5
 74.8837890625 1.7041015625 l 5
 80.71875 -2.7685546875 l 5
 78.7724609375 5.984375 l 5
 186.35546875 352.64453125 l 5
 293.8984375 699.20703125 l 5
 294.482421875 699.20703125 l 5
 300.512695312 706.599609375 l 5
 291.952148438 703.681640625 l 5
 232.62890625 703.681640625 l 5
 225.23828125 708.154296875 l 5
EndSplineSet
EndChar

StartChar: J
Encoding: 74 74 10
Width: 402
VWidth: 919
GlyphClass: 1
Flags: W
HStem: -13 54.7842<78.3364 197.372>
VStem: -1 68.5781<53.8627 171.893>
DStem2: 239.311 129.787 300.506 109.583 0.294373 0.955691<-78.4788 592.054>
LayerCount: 2
Fore
SplineSet
412.013671875 704.04296875 m 1
 413.958007812 695.49609375 l 1
 239.310546875 129.787109375 l 2
 214.833007812 50.5263671875 161.408203125 41.7841796875 135.5703125 41.7841796875 c 0
 83.5068359375 41.7841796875 67.578125 68.009765625 67.578125 98.12109375 c 0
 67.578125 116.965820312 76.3212890625 144.35546875 90.6962890625 184.763671875 c 1
 98.078125 190.591796875 l 1
 89.1416015625 187.483398438 l 1
 30.27734375 187.483398438 l 1
 23.08984375 193.3125 l 1
 25.033203125 184.763671875 l 1
 7.7431640625 137.16796875 -1 106.669921875 -1 83.74609375 c 0
 -1 54.7998046875 19.205078125 -13 127.412109375 -13 c 0
 228.431640625 -13 278.942382812 40.4228515625 300.505859375 109.583007812 c 2
 480.979492188 695.49609375 l 1
 479.814453125 695.49609375 l 1
 485.643554688 702.490234375 l 1
 476.900390625 699.76953125 l 1
 419.204101562 699.76953125 l 1
 412.013671875 704.04296875 l 1
EndSplineSet
EndChar

StartChar: K
Encoding: 75 75 11
Width: 405
VWidth: 1005
GlyphClass: 1
Flags: W
HStem: -20.2725 20G<7 80.3037 293.041 370.999> 695.532 6.98047<293.041 293.624 535.06 535.643>
DStem2: 12.8193 4.18848 78.3652 4.18848 0.296551 0.955017<19.4377 723.85> 201.314 381.567 266.86 370.126 0.636015 0.771677<32.8591 410.416>
LayerCount: 2
Fore
SplineSet
224.584960938 704.064453125 m 1
 227.30078125 695.532226562 l 1
 12.8193359375 4.1884765625 l 1
 7 -2.9873046875 l 1
 15.728515625 -0.2724609375 l 1
 74.4873046875 -0.2724609375 l 1
 80.3037109375 -4.5390625 l 1
 78.365234375 4.1884765625 l 1
 293.041015625 695.532226562 l 1
 293.624023438 695.532226562 l 1
 299.24609375 702.512695312 l 1
 290.71484375 699.799804688 l 1
 231.76171875 699.799804688 l 1
 224.584960938 704.064453125 l 1
462.143554688 704.064453125 m 1
 462.143554688 698.44140625 l 1
 201.314453125 381.567382812 l 1
 197.047851562 380.209960938 l 1
 201.314453125 375.749023438 l 1
 294.981445312 4.1884765625 l 1
 293.041015625 -4.5390625 l 1
 298.666015625 -0.2724609375 l 1
 362.272460938 -0.2724609375 l 1
 370.999023438 -2.9873046875 l 1
 364.98828125 4.1884765625 l 1
 266.860351562 362.755859375 l 1
 258.329101562 367.022460938 l 1
 266.860351562 370.125976562 l 1
 535.059570312 695.532226562 l 1
 535.642578125 695.532226562 l 1
 547.278320312 702.512695312 l 1
 534.091796875 699.799804688 l 1
 466.411132812 699.799804688 l 1
 462.143554688 704.064453125 l 1
EndSplineSet
EndChar

StartChar: L
Encoding: 76 76 12
Width: 362
GlyphClass: 1
Flags: W
DStem2: 11.7754 8.50586 96.2725 68.5596 0.296551 0.955017<82.41 718.501>
LayerCount: 2
Fore
SplineSet
222.15234375 703.155273438 m 5
 224.84765625 694.686523438 l 5
 11.775390625 8.505859375 l 5
 6 1.3828125 l 5
 14.662109375 4.0791015625 l 5
 280.665039062 4.0791015625 l 5
 287.788085938 -0.1552734375 l 5
 284.899414062 8.505859375 l 5
 302.03125 58.5498046875 l 5
 307.8046875 65.86328125 l 5
 299.142578125 62.591796875 l 5
 101.854492188 62.591796875 l 5
 87.611328125 57.009765625 l 5
 96.2724609375 68.5595703125 l 5
 290.673828125 694.686523438 l 5
 296.44921875 701.6171875 l 5
 287.788085938 698.920898438 l 5
 229.08203125 698.920898438 l 5
 222.15234375 703.155273438 l 5
EndSplineSet
EndChar

StartChar: M
Encoding: 77 77 13
Width: 673
GlyphClass: 1
Flags: W
DStem2: 12.7471 6.4082 74.8184 6.4082 0.296474 0.955041<18.4025 691.799> 301.65 94.7285 309.315 5.06836 0.477792 0.878473<-38.6141 660.28> 460.089 6.4082 525.61 6.4082 0.294764 0.95557<19.3134 675.156>
LayerCount: 2
Fore
SplineSet
222.14453125 698.208984375 m 5
 224.827148438 689.587890625 l 5
 12.7470703125 6.408203125 l 5
 7 -0.6787109375 l 5
 15.4296875 2.3857421875 l 5
 71.1787109375 2.3857421875 l 5
 76.734375 -2.212890625 l 5
 74.818359375 6.408203125 l 5
 258.162109375 601.26953125 l 5
 269.465820312 651.081054688 l 5
 266.591796875 599.735351562 l 5
 232.681640625 6.408203125 l 5
 226.7421875 -2.212890625 l 5
 235.555664062 2.3857421875 l 5
 303.7578125 2.3857421875 l 5
 309.315429688 -2.212890625 l 5
 309.315429688 5.068359375 l 5
 633.853515625 598.586914062 l 5
 660.674804688 651.081054688 l 5
 642.666992188 594.180664062 l 5
 460.088867188 6.408203125 l 5
 454.533203125 -0.6787109375 l 5
 463.155273438 2.3857421875 l 5
 521.395507812 2.3857421875 l 5
 528.482421875 -2.212890625 l 5
 525.610351562 6.408203125 l 5
 736.350585938 689.587890625 l 5
 736.731445312 689.587890625 l 5
 742.48046875 696.676757812 l 5
 733.859375 693.802734375 l 5
 622.93359375 693.802734375 l 5
 616.994140625 698.208984375 l 5
 618.91015625 690.9296875 l 5
 301.650390625 94.728515625 l 5
 288.814453125 57.75390625 l 5
 294.563476562 96.2607421875 l 5
 333.0703125 689.587890625 l 5
 338.435546875 698.208984375 l 5
 330.198242188 693.802734375 l 5
 229.041992188 693.802734375 l 5
 222.14453125 698.208984375 l 5
EndSplineSet
EndChar

StartChar: N
Encoding: 78 78 14
Width: 520
GlyphClass: 1
Flags: W
VStem: 274.129 56.0244<414.64 670.125> 285.447 57.7539<27.5439 390.808>
DStem2: 13.5654 7.39941 77.2666 7.39941 0.296474 0.955041<18.8857 669.315> 350.301 73.2119 387.523 7.39941 0.294764 0.95557<-46.5797 140.625>
LayerCount: 2
Fore
SplineSet
223.088867188 700.248046875 m 1x80
 225.966796875 691.614257812 l 5
 13.5654296875 7.3994140625 l 5
 8 0.298828125 l 1
 16.6357421875 3.369140625 l 1
 71.89453125 3.369140625 l 1
 79.1865234375 -1.234375 l 1
 77.2666015625 7.3994140625 l 5
 231.147460938 506.45703125 l 5
 265.494140625 628.873046875 l 1
 274.12890625 670.125 l 1
 274.12890625 627.3359375 l 1x80
 285.447265625 7.3994140625 l 1
 279.883789062 -1.234375 l 1
 288.326171875 3.369140625 l 1
 382.34375 3.369140625 l 1
 389.444335938 -1.234375 l 1
 387.5234375 7.3994140625 l 1
 598.583007812 691.614257812 l 1
 599.541992188 691.614257812 l 1
 604.916015625 698.71484375 l 1
 596.473632812 695.8359375 l 1
 539.486328125 695.8359375 l 1
 532.1953125 700.248046875 l 1
 534.115234375 691.614257812 l 1
 388.866210938 208.479492188 l 1
 350.30078125 73.2119140625 l 1
 340.32421875 27.5439453125 l 1
 343.201171875 73.2119140625 l 1x40
 341.282226562 251.268554688 l 1
 330.153320312 691.614257812 l 1
 334.375 700.248046875 l 1
 325.548828125 695.8359375 l 1
 230.188476562 695.8359375 l 1
 223.088867188 700.248046875 l 1x80
EndSplineSet
EndChar

StartChar: O
Encoding: 79 79 15
Width: 477
GlyphClass: 1
Flags: W
DStem2: 57.2061 200.307 107.262 148.517 0.294665 0.9556<-96.3205 466.911> 321.36 125.719 384.179 119.915 0.295569 0.955321<-70.5248 492.516>
LayerCount: 2
Fore
SplineSet
384.178710938 119.915039062 m 2
 349.974609375 2.2294921875 246.58203125 -23.4765625 169.090820312 -12.2685546875 c 0
 48.505859375 5.123046875 15.46484375 65.4228515625 57.2060546875 200.306640625 c 2
 169.090820312 564.953125 l 2
 207.740234375 686.696289062 325.420898438 728.4453125 425.907226562 696.947265625 c 0
 473.446289062 681.100585938 542.252929688 630.854492188 504.956054688 507.37109375 c 2
 384.178710938 119.915039062 l 2
372.974609375 650.947265625 m 0
 341.28125 652.494140625 262.229492188 653.85546875 230.729492188 548.922851562 c 2
 107.26171875 148.516601562 l 2
 80.013671875 62.330078125 156.149414062 43.7734375 184.94140625 41.06640625 c 0
 232.287109375 35.26953125 298.170898438 50.9326171875 321.360351562 125.71875 c 2
 446.1953125 529.203125 l 2
 469.190429688 605.147460938 430.172851562 646.697265625 372.974609375 650.947265625 c 0
EndSplineSet
EndChar

StartChar: P
Encoding: 80 80 16
Width: 427
GlyphClass: 1
Flags: W
HStem: 317.356 54.6523<272.538 357.851> 642.749 59.1064<371.569 431.37>
DStem2: 13.8154 6.50195 79.5117 6.50195 0.296305 0.955093<19.4662 338.788 409.761 680.538>
LayerCount: 2
Fore
SplineSet
225.444335938 706.120117188 m 5
 228.157226562 697.3984375 l 5
 13.8154296875 6.501953125 l 5
 8 -0.474609375 l 5
 16.7216796875 2.0458984375 l 5
 75.83203125 2.0458984375 l 5
 81.451171875 -2.0244140625 l 5
 79.51171875 6.501953125 l 5
 173.311523438 311.737304688 l 5
 170.2109375 323.171875 l 5
 180.288085938 317.356445312 l 5
 272.538085938 317.356445312 l 5
 272.92578125 317.356445312 l 6
 395.01953125 317.356445312 455.678710938 380.73046875 488.818359375 490.227539062 c 4
 524.864257812 602.244140625 507.422851562 701.85546875 371.956054688 701.85546875 c 6
 232.614257812 701.85546875 l 5
 225.444335938 706.120117188 l 5
270.793945312 649.918945312 m 5
 281.063476562 642.749023438 l 5
 371.569335938 642.749023438 l 6
 431.259765625 642.749023438 461.104492188 616.971679688 429.321289062 508.83203125 c 4
 396.375 403.791992188 354.515625 372.008789062 272.538085938 372.008789062 c 6
 199.0859375 372.008789062 l 5
 186.103515625 367.938476562 l 5
 194.82421875 379.373046875 l 5
 274.086914062 638.291992188 l 5
 270.793945312 649.918945312 l 5
EndSplineSet
EndChar

StartChar: Q
Encoding: 81 81 17
Width: 482
GlyphClass: 1
Flags: W
HStem: -12.3291 54.8916<122.71 330.255> 649.844 58.4521<294.138 436.764>
DStem2: 60.7861 201.823 113.549 157.37 0.294944 0.955515<-100.522 456.44> 336.205 167.421 396.316 144.612 0.29395 0.955821<-87.8986 -4.13123 -4.01784 456.811>
LayerCount: 2
Fore
SplineSet
375.313476562 708.295898438 m 4
 282.923828125 710.774414062 206.479492188 671.092773438 171.146484375 560.7421875 c 6
 60.7861328125 201.823242188 l 6
 23.4833984375 78.51171875 35.078125 -12.3291015625 191.440429688 -12.3291015625 c 4
 276.096679688 -12.3291015625 329.247070312 -0.5400390625 396.702148438 -10.7822265625 c 5
 404.046875 -16.3876953125 l 5
 402.115234375 -7.8837890625 l 5
 419.31640625 44.1083984375 l 5
 425.115234375 49.5185546875 l 5
 416.416015625 46.6220703125 l 5
 386.458007812 48.16796875 356.30859375 42.5625 330.408203125 40.8232421875 c 6
 297.357421875 33.86328125 l 5
 327.703125 48.16796875 l 5
 353.215820312 71.16796875 382.20703125 102.670898438 396.31640625 144.612304688 c 5
 396.702148438 144.612304688 l 5
 514.602539062 529.237304688 l 6
 547.4609375 633.799804688 481.358398438 698.549804688 393.99609375 707.247070312 c 4
 387.703125 707.778320312 381.473632812 708.130859375 375.313476562 708.295898438 c 4
376.215820312 649.84375 m 4
 450.821289062 648.297851562 471.116210938 602.296875 445.215820312 517.640625 c 6
 336.205078125 167.420898438 l 6
 300.255859375 46.6220703125 222.752929688 42.5625 188.155273438 42.5625 c 4
 153.944335938 44.1083984375 80.498046875 52.4208984375 113.548828125 157.370117188 c 6
 225.650390625 520.540039062 l 6
 262.954101562 642.692382812 334.661132812 651.197265625 376.215820312 649.84375 c 4
EndSplineSet
EndChar

StartChar: R
Encoding: 82 82 18
Width: 459
GlyphClass: 1
Flags: W
HStem: -19.834 20G<8 80.959 287.905 360.673> 330.316 54.2871<290.599 342.55> 636.403 58.5225<367.795 434.779>
DStem2: 13.9648 4.40039 79.0332 4.40039 0.296628 0.954993<19.3011 354.27 424.827 675.907> 292.141 34.4316 415.153 263.322 0.248478 0.968637<-12.3577 282.843>
LayerCount: 2
Fore
SplineSet
223.9921875 699.354492188 m 5
 227.072265625 690.499023438 l 5
 13.96484375 4.400390625 l 5
 8 -2.7216796875 l 5
 16.6611328125 0.166015625 l 5
 75.1826171875 0.166015625 l 5
 80.958984375 -4.2626953125 l 5
 79.033203125 4.400390625 l 5
 177.59765625 324.541015625 l 5
 174.7109375 336.091796875 l 5
 184.913085938 330.31640625 l 5
 290.598632812 330.31640625 l 6
 352.5859375 330.31640625 359.1328125 290.274414062 350.662109375 263.322265625 c 6
 292.140625 34.431640625 l 6
 289.251953125 27.30859375 289.251953125 21.7265625 292.140625 4.400390625 c 5
 287.905273438 -4.2626953125 l 5
 295.02734375 0.166015625 l 5
 352.009765625 0.166015625 l 5
 360.672851562 -4.2626953125 l 5
 356.4375 4.400390625 l 5
 354.513671875 21.7265625 354.513671875 25.7685546875 356.4375 34.431640625 c 6
 415.153320312 263.322265625 l 6
 423.623046875 294.701171875 406.48828125 330.314453125 372.221679688 347.640625 c 5
 343.540039062 356.112304688 l 5
 372.221679688 356.112304688 l 5
 372.801757812 356.112304688 l 5
 444.221679688 380.368164062 478.487304688 424.836914062 501.39453125 499.145507812 c 4
 535.853515625 610.80078125 490.037109375 694.92578125 387.045898438 694.92578125 c 6
 231.114257812 694.92578125 l 5
 223.9921875 699.354492188 l 5
269.0390625 643.525390625 m 5
 279.2421875 636.403320312 l 5
 367.794921875 636.403320312 l 6
 466.551757812 636.403320312 455.193359375 570.565429688 436.51953125 509.155273438 c 4
 403.6015625 400.581054688 346.42578125 384.603515625 290.598632812 384.603515625 c 6
 203.586914062 384.603515625 l 5
 190.688476562 380.3671875 l 5
 199.158203125 391.7265625 l 5
 272.119140625 631.9765625 l 5
 269.0390625 643.525390625 l 5
EndSplineSet
EndChar

StartChar: S
Encoding: 83 83 19
Width: 400
GlyphClass: 1
Flags: W
HStem: -18.8027 54.8867<86.9145 226.174> 653.469 53.3301<275.367 397.876>
VStem: 6 64.6191<53.2588 184.773> 412.009 69.0967<519.734 639.643>
LayerCount: 2
Fore
SplineSet
339.604492188 706.798828125 m 4
 275.763671875 706.798828125 190.709960938 679.548828125 151.39453125 555.176757812 c 4
 132.903320312 493.088867188 134.264648438 433.918945312 216.791015625 350.03125 c 4
 290.946289062 274.70703125 319.365234375 245.901367188 289.000976562 144.49609375 c 4
 262.725585938 60.6083984375 203.36328125 36.083984375 150.227539062 36.083984375 c 4
 96.7021484375 36.083984375 70.619140625 62.361328125 70.619140625 95.44921875 c 4
 70.619140625 114.133789062 70.6201171875 117.24609375 93.587890625 187.899414062 c 5
 99.62109375 195.296875 l 5
 90.861328125 192.182617188 l 5
 27.2158203125 192.182617188 l 5
 21.376953125 196.463867188 l 5
 23.32421875 187.899414062 l 5
 13.203125 156.173828125 6 118.611328125 6 95.44921875 c 4
 6 20.3203125 63.8076171875 -18.802734375 150.615234375 -18.802734375 c 4
 270.315429688 -18.802734375 328.315429688 59.0517578125 354.202148438 144.49609375 c 4
 391.962890625 263.223632812 334.15625 328.232421875 289.389648438 375.91796875 c 4
 201.220703125 464.087890625 198.299804688 480.048828125 215.623046875 537.85546875 c 4
 241.509765625 623.10546875 289.389648438 653.46875 342.9140625 653.46875 c 4
 397.60546875 653.46875 412.008789062 618.62890625 412.008789062 594.299804688 c 4
 412.008789062 576.782226562 412.008789062 574.057617188 394.881835938 517.418945312 c 5
 388.849609375 510.215820312 l 5
 397.608398438 513.135742188 l 5
 461.25390625 513.135742188 l 5
 467.092773438 508.659179688 l 5
 465.145507812 517.418945312 l 5
 478.379882812 560.822265625 481.10546875 576.782226562 481.10546875 594.299804688 c 4
 481.10546875 664.953125 430.694335938 706.798828125 339.604492188 706.798828125 c 4
EndSplineSet
EndChar

StartChar: T
Encoding: 84 84 20
Width: 401
GlyphClass: 1
Flags: W
DStem2: 109.759 8.22949 174.831 8.22949 0.294066 0.955785<19.1355 653.445>
LayerCount: 2
Fore
SplineSet
163.890625 701.194335938 m 5
 166.768554688 692.365234375 l 5
 149.684570312 642.83984375 l 5
 143.92578125 635.736328125 l 5
 152.37109375 638.424804688 l 5
 298.067382812 638.424804688 l 5
 310.737304688 644.18359375 l 5
 302.290039062 632.666992188 l 5
 109.758789062 8.2294921875 l 5
 104 1.126953125 l 5
 112.63671875 4.0068359375 l 5
 169.840820312 4.0068359375 l 5
 176.75 -0.4072265625 l 5
 174.831054688 8.2294921875 l 5
 367.364257812 634.008789062 l 5
 364.291992188 645.528320312 l 5
 374.466796875 638.424804688 l 5
 516.8984375 638.424804688 l 5
 524 634.008789062 l 5
 522.080078125 642.83984375 l 5
 537.629882812 692.365234375 l 5
 538.780273438 692.365234375 l 5
 544.5390625 699.658203125 l 5
 536.286132812 696.780273438 l 5
 171.182617188 696.780273438 l 5
 163.890625 701.194335938 l 5
EndSplineSet
EndChar

StartChar: U
Encoding: 85 85 21
Width: 484
GlyphClass: 1
Flags: W
HStem: -13.249 54.9111<128.936 259.774>
DStem2: 59.0645 163.662 119.002 144.907 0.295794 0.955252<-66.4694 553.02> 318.533 149.16 380.598 131.953 0.294062 0.955786<-86.1127 568.073>
LayerCount: 2
Fore
SplineSet
220.89453125 700.774414062 m 5
 222.828125 691.87890625 l 5
 59.064453125 163.662109375 l 6
 21.748046875 39.921875 94.83203125 -9.9619140625 169.463867188 -13.2490234375 c 4
 291.657226562 -17.3095703125 359.135742188 64.6689453125 380.59765625 131.953125 c 6
 552.8671875 691.87890625 l 5
 551.70703125 691.87890625 l 5
 557.505859375 699.2265625 l 5
 548.999023438 696.325195312 l 5
 491.576171875 696.325195312 l 5
 484.423828125 700.774414062 l 5
 486.35546875 691.87890625 l 5
 318.533203125 149.16015625 l 6
 291.270507812 58.6748046875 228.046875 39.921875 186.28515625 41.662109375 c 4
 138.915039062 43.208984375 95.9931640625 68.728515625 119.001953125 144.907226562 c 6
 288.372070312 691.87890625 l 5
 293.978515625 699.2265625 l 5
 285.471679688 696.325195312 l 5
 228.048828125 696.325195312 l 5
 220.89453125 700.774414062 l 5
EndSplineSet
EndChar

StartChar: V
Encoding: 86 86 22
Width: 427
GlyphClass: 1
Flags: W
HStem: -19.6211 20G<109 201.728>
DStem2: 114.747 4.40234 184.483 121.078 0.0707702 0.997493<85.6793 684.917> 188.699 84.292 199.811 3.05859 0.476973 0.878918<-46.9374 34.9419>
LayerCount: 2
Fore
SplineSet
159.00390625 696.223632812 m 5
 163.21875 687.6015625 l 5
 114.747070312 4.40234375 l 5
 109 -4.2197265625 l 5
 117.62109375 0.37890625 l 5
 195.98046875 0.37890625 l 5
 201.727539062 -4.2197265625 l 5
 199.810546875 3.05859375 l 5
 571.299804688 687.6015625 l 5
 571.68359375 687.6015625 l 5
 580.11328125 694.69140625 l 5
 568.80859375 691.817382812 l 5
 510.56640625 691.817382812 l 5
 504.626953125 696.223632812 l 5
 504.626953125 688.942382812 l 5
 204.41015625 115.521484375 l 5
 188.69921875 84.2919921875 l 5
 171.840820312 40.037109375 l 5
 180.459960938 85.634765625 l 5
 184.483398438 121.078125 l 5
 228.741210938 687.6015625 l 5
 234.297851562 696.223632812 l 5
 225.676757812 691.817382812 l 5
 167.434570312 691.817382812 l 5
 159.00390625 696.223632812 l 5
EndSplineSet
EndChar

StartChar: W
Encoding: 87 87 23
Width: 676
GlyphClass: 1
Flags: W
DStem2: 145.123 86.0029 171.088 7.3418 0.42369 0.905807<-49.2823 657.411> 156.663 694.331 222.439 694.331 0.120057 0.992767<-554.148 0> 448.037 86.0029 466.116 7.3418 0.451008 0.89252<-49.1784 51.1775>
LayerCount: 2
Fore
SplineSet
152.239257812 703.178710938 m 5
 156.663085938 694.331054688 l 5
 73.7705078125 8.8798828125 l 5
 68 1.7666015625 l 5
 76.6552734375 4.6513671875 l 5
 165.318359375 4.6513671875 l 5
 171.087890625 0.2275390625 l 5
 171.087890625 7.341796875 l 5
 435.344726562 565.859375 l 5
 455.154296875 610.287109375 l 5
 475.154296875 657.405273438 l 5
 462.270507812 608.939453125 l 5
 454 560.28125 l 5
 372.453125 8.8798828125 l 5
 366.68359375 1.7666015625 l 5
 375.146484375 4.6513671875 l 5
 462.270507812 4.6513671875 l 5
 468.041015625 0.2275390625 l 5
 466.116210938 7.341796875 l 5
 813.265625 694.331054688 l 5
 820.3828125 701.639648438 l 5
 810.380859375 698.754882812 l 5
 751.720703125 698.754882812 l 5
 746.142578125 703.178710938 l 5
 748.067382812 696.064453125 l 5
 470.92578125 131.77734375 l 5
 448.037109375 86.0029296875 l 5
 429.575195312 40.2314453125 l 5
 440.728515625 87.349609375 l 5
 450.922851562 137.35546875 l 5
 533.815429688 694.331054688 l 5
 539.584960938 701.639648438 l 5
 530.73828125 698.754882812 l 5
 439.575195312 698.754882812 l 5
 433.612304688 703.178710938 l 5
 433.612304688 696.064453125 l 5
 166.6640625 131.77734375 l 5
 145.123046875 86.0029296875 l 5
 126.661132812 40.2314453125 l 5
 138.008789062 87.349609375 l 5
 146.663085938 137.35546875 l 5
 222.439453125 694.331054688 l 5
 228.015625 703.178710938 l 5
 219.5546875 698.754882812 l 5
 160.89453125 698.754882812 l 5
 152.239257812 703.178710938 l 5
EndSplineSet
EndChar

StartChar: X
Encoding: 88 88 24
Width: 464
GlyphClass: 1
Flags: W
HStem: -2.32715 21G<-21.9023 -20.5674 49.2822 53.498 324.443 330.205 387.009 389.89>
DStem2: 267.452 690.583 201.843 690.583 0.176359 -0.984326<0 277.557 372.922 683.604>
LayerCount: 2
Fore
SplineSet
579.483398438 691.9296875 m 5
 330.205078125 355.3515625 l 5
 321.584960938 354.203125 l 5
 328.68359375 351.322265625 l 5
 389.889648438 6.3046875 l 5
 395.651367188 -2.3271484375 l 5
 387.008789062 2.2763671875 l 5
 330.205078125 2.2763671875 l 5
 321.584960938 -2.3271484375 l 5
 324.443359375 6.3046875 l 5
 273.21484375 294.331054688 l 5
 273.21484375 312.754882812 l 5
 267.452148438 297.211914062 l 5
 53.498046875 4.9638671875 l 5
 53.498046875 -2.3271484375 l 5
 49.2822265625 2.2763671875 l 5
 -20.5673828125 2.2763671875 l 5
 -29 -0.791015625 l 5
 -21.90234375 4.9638671875 l 5
 255.952148438 376.842773438 l 5
 264.595703125 378.189453125 l 5
 257.288085938 382.791992188 l 5
 201.842773438 690.583007812 l 5
 196.079101562 699.220703125 l 5
 204.512695312 694.8046875 l 5
 263.049804688 694.8046875 l 5
 270.146484375 699.220703125 l 5
 267.452148438 690.583007812 l 5
 312.943359375 435.374023438 l 5
 312.943359375 416.756835938 l 5
 318.704101562 434.026367188 l 5
 502.723632812 693.46484375 l 5
 502.723632812 699.220703125 l 5
 506.939453125 694.8046875 l 5
 578.125 694.8046875 l 5
 586.581054688 697.685546875 l 5
 579.483398438 691.9296875 l 5
EndSplineSet
EndChar

StartChar: Y
Encoding: 89 89 25
Width: 401
GlyphClass: 1
Flags: W
HStem: 691.634 4.41699<539.618 539.811>
DStem2: 106.569 7.20312 171.67 7.20312 0.297758 0.954641<19.3842 297.32>
LayerCount: 2
Fore
SplineSet
223.51953125 700.466796875 m 5
 216.416015625 696.05078125 l 5
 158.03515625 696.05078125 l 5
 149.393554688 698.931640625 l 5
 154.961914062 691.633789062 l 5
 195.098632812 291.037109375 l 5
 106.569335938 7.203125 l 5
 101 0.09765625 l 5
 109.44921875 2.978515625 l 5
 166.484375 2.978515625 l 5
 173.588867188 -1.439453125 l 5
 171.669921875 7.203125 l 5
 258.6640625 287.004882812 l 5
 539.618164062 691.633789062 l 5
 539.810546875 691.633789062 l 5
 549.796875 698.931640625 l 5
 537.12109375 696.05078125 l 5
 468.564453125 696.05078125 l 5
 464.145507812 700.466796875 l 5
 464.145507812 693.362304688 l 5
 257.510742188 378.03125 l 5
 248.676757812 358.059570312 l 5
 250.59765625 379.376953125 l 5
 220.639648438 691.633789062 l 5
 223.51953125 700.466796875 l 5
EndSplineSet
EndChar

StartChar: Z
Encoding: 90 90 26
Width: 430
GlyphClass: 1
Flags: W
HStem: -22.1406 20G<-13 331.981>
LayerCount: 2
Fore
SplineSet
198.653320312 703.755859375 m 5
 200.595703125 695.01171875 l 5
 186.020507812 647.393554688 l 5
 180.3828125 640.202148438 l 5
 189.12890625 642.924804688 l 5
 425.854492188 642.924804688 l 5
 443.15234375 647.393554688 l 5
 428.768554688 635.732421875 l 5
 9.935546875 58.3037109375 l 5
 -7.169921875 1.939453125 l 5
 -13 -5.2509765625 l 5
 -4.642578125 -2.140625 l 5
 324.791015625 -2.140625 l 5
 331.981445312 -6.8046875 l 5
 330.037109375 1.939453125 l 5
 344.420898438 49.7509765625 l 5
 350.25 56.9423828125 l 5
 341.310546875 54.0283203125 l 5
 93.1171875 54.0283203125 l 5
 74.265625 49.7509765625 l 5
 88.841796875 61.2177734375 l 5
 503.208984375 632.817382812 l 5
 523.420898438 695.01171875 l 5
 529.0546875 702.202148438 l 5
 520.504882812 699.287109375 l 5
 205.844726562 699.287109375 l 5
 198.653320312 703.755859375 l 5
EndSplineSet
EndChar

StartChar: bracketleft
Encoding: 91 91 27
Width: 206
GlyphClass: 1
Flags: W
HStem: 139.174 39.8105<28.7034 116.813> 853.773 39.8828<229.122 236.399 314.313 335.851> 889.59 6.39258<350.741 351.216>
DStem2: -34.624 154.93 25.5225 184.186 0.295542 0.95533<46.9684 748.144>
LayerCount: 2
Fore
SplineSet
351.215820312 895.982421875 m 0xa0
 350.741210938 896.108398438 349.001953125 895.52734375 345.166992188 894.17578125 c 0
 299.68359375 892.962890625 253.922851562 894.002929688 208.336914062 893.65625 c 1
 200.36328125 889.149414062 185.803710938 903.831054688 192.217773438 889.669921875 c 1
 116.609375 644.756835938 41.0009765625 399.842773438 -34.6240234375 154.9296875 c 0
 -32.7177734375 147.805664062 -50.2236328125 132.102539062 -37.0498046875 138.654296875 c 1
 1.603515625 139.8671875 40.603515625 138.827148438 79.3955078125 139.173828125 c 0
 91.9619140625 137.579101562 106.572265625 142.987304688 117.319335938 135.1875 c 1
 113.159179688 144.75 120.09375 153.81640625 122.000976562 163.107421875 c 0
 120.09375 170.057617188 137.774414062 185.763671875 124.774414062 179.505859375 c 1
 93.9208984375 178.29296875 62.75390625 179.331054688 31.7626953125 178.984375 c 1
 19.9755859375 174.737304688 14.255859375 172.208007812 25.5224609375 184.185546875 c 1
 93.3818359375 403.556640625 161.259765625 622.927734375 229.120117188 842.298828125 c 0
 234.493164062 850.098632812 223.74609375 867.415039062 236.399414062 853.7734375 c 1
 314.313476562 853.7734375 l 2xc0
 321.6796875 857.37890625 338.838867188 847.689453125 335.719726562 854.29296875 c 0
 335.719726562 866.2109375 342.827148438 877.802734375 345.600585938 889.58984375 c 1
 346.899414062 889.73828125 l 2
 349.282226562 893.594726562 352.005859375 895.771484375 351.215820312 895.982421875 c 0xa0
EndSplineSet
Validated: 41
EndChar

StartChar: backslash
Encoding: 92 92 28
Width: 562
GlyphClass: 1
Flags: W
DStem2: 158.954 777.851 90.9961 776.522 0.429309 -0.903158<0 934.626>
LayerCount: 2
Fore
SplineSet
90.99609375 776.522460938 m 5
 83 784.51171875 l 5
 94.546875 781.408203125 l 5
 152.069335938 781.408203125 l 5
 158.954101562 786.071289062 l 5
 158.954101562 777.850585938 l 5
 571.311523438 -91.306640625 l 5
 579.091796875 -99.5205078125 l 5
 567.760742188 -96.193359375 l 5
 508.694335938 -96.193359375 l 5
 502.026367188 -101.071289062 l 5
 504.249023438 -92.8583984375 l 5
 90.99609375 776.522460938 l 5
EndSplineSet
EndChar

StartChar: bracketright
Encoding: 93 93 29
Width: 207
GlyphClass: 1
Flags: W
HStem: 137.176 40.3496<-87.9615 -52.5898 11.9258 20.5903> 851.27 40.7441<132.837 223.124>
DStem2: 20.5918 188.828 58.1367 141.51 0.29345 0.955975<-13.7173 692.241>
LayerCount: 2
Fore
SplineSet
132.443359375 896 m 1
 136.4296875 886.922851562 130.19140625 878.338867188 128.111328125 869.55078125 c 0
 130.017578125 862.639648438 113.204101562 846.485351562 123.77734375 851.26953125 c 1
 154.751953125 853.349609375 186.264648438 851.6171875 217.447265625 852.13671875 c 1
 229.234375 856.799804688 233.046875 858.653320312 222.646484375 847.109375 c 1
 155.2890625 627.681640625 87.931640625 408.255859375 20.591796875 188.828125 c 0
 15.73828125 179.728515625 25.4453125 164.8203125 11.92578125 177.525390625 c 1
 -52.58984375 177.525390625 l 2
 -64.4462890625 179.137695312 -78.3818359375 173.765625 -88.435546875 181.33984375 c 1
 -83.2353515625 171.986328125 -90.6875 162.708007812 -92.59375 153.400390625 c 0
 -90.8603515625 146.415039062 -108.1953125 130.606445312 -95.021484375 137.17578125 c 1
 -49.919921875 138.388671875 -4.490234375 137.348632812 40.75 137.6953125 c 1
 48.775390625 142.375 64.7236328125 126.950195312 58.13671875 141.509765625 c 1
 134.801757812 390.416015625 211.483398438 639.322265625 288.1484375 888.228515625 c 1
 288.89453125 888.216796875 l 1
 292.880859375 894.318359375 297.388671875 896.5546875 287.162109375 892.533203125 c 0
 246.359375 891.3203125 205.208984375 892.360351562 164.28515625 892.013671875 c 0
 153.798828125 893.729492188 140.763671875 888.009765625 132.443359375 896 c 1
EndSplineSet
Validated: 41
EndChar

StartChar: asciicircum
Encoding: 94 94 30
Width: 676
GlyphClass: 1
Flags: W
DStem2: 209.127 480.169 281.562 477.679 0.695617 0.718413<48.5984 301.632>
LayerCount: 2
Fore
SplineSet
560.33203125 476.333984375 m 5
 567.41796875 472.499023438 l 5
 562.4375 480.168945312 l 5
 503.052734375 694.375 l 5
 504.969726562 701.846679688 l 5
 499.404296875 698.01171875 l 5
 422.572265625 698.01171875 l 5
 418.947265625 701.846679688 l 5
 418.947265625 696.865234375 l 5
 209.126953125 480.168945312 l 5
 203 475.1875 l 5
 210.670898438 476.333984375 l 5
 278.310546875 476.333984375 l 5
 281.5625 472.499023438 l 5
 281.5625 477.678710938 l 5
 451.901367188 656.82421875 l 5
 457.256835938 666.974609375 l 5
 457.256835938 654.333007812 l 5
 505.9296875 480.168945312 l 5
 504.01171875 472.499023438 l 5
 508.620117188 476.333984375 l 5
 560.33203125 476.333984375 l 5
EndSplineSet
EndChar

StartChar: underscore
Encoding: 95 95 31
Width: 595
GlyphClass: 1
Flags: W
HStem: -145.165 6.27637<647.268 648.029>
LayerCount: 2
Fore
SplineSet
49.17578125 -137.555664062 m 1
 51.6474609375 -145.165039062 l 1
 41.5654296875 -194.81640625 l 1
 37 -200.904296875 l 1
 44.4189453125 -198.430664062 l 1
 378.086914062 -198.430664062 l 1
 639.087890625 -202.235351562 l 1
 637.184570312 -194.81640625 l 1
 647.267578125 -145.165039062 l 1
 648.029296875 -145.165039062 l 1
 652.78515625 -138.888671875 l 1
 645.17578125 -141.55078125 l 1
 55.072265625 -141.55078125 l 1
 49.17578125 -137.555664062 l 1
EndSplineSet
EndChar

StartChar: grave
Encoding: 96 96 32
Width: 379
VWidth: 1091
GlyphClass: 1
Flags: W
HStem: 525.233 180.85
VStem: 88 244.116
LayerCount: 2
Fore
SplineSet
320.829101562 529.5234375 m 1
 256.977539062 529.5234375 l 1
 252.891601562 525.233398438 l 1
 252.891601562 532.434570312 l 1
 97.9326171875 698.680664062 l 1
 88 706.083007812 l 1
 101.045898438 703.159179688 l 1
 199.54296875 703.159179688 l 1
 205.578125 707.44921875 l 1
 205.578125 700.046875 l 1
 323.34765625 533.80078125 l 1
 332.116210938 526.600585938 l 1
 320.829101562 529.5234375 l 1
EndSplineSet
EndChar

StartChar: a
Encoding: 97 97 33
Width: 354
GlyphClass: 1
Flags: W
HStem: -0 41.8506<76.5372 167.682> 245.998 44.5234<136.144 272.981> 445.69 47.6406<204.402 308.385>
DStem2: 241.146 163.405 281.887 96.8408 0.289751 0.957102<-95.2351 78.7911 139.435 275.853>
LayerCount: 2
Fore
SplineSet
264.744140625 493.331054688 m 6
 265.857421875 493.331054688 l 6
 371.379882812 493.331054688 378.727539062 410.73828125 365.592773438 373.337890625 c 6
 281.88671875 96.8408203125 l 5
 267.193359375 53.4296875 261.626953125 16.029296875 258.733398438 4.4521484375 c 6
 261.626953125 -4.23046875 l 5
 254.28125 -0 l 5
 202.41015625 -0 l 5
 193.504882812 -2.8935546875 l 5
 199.293945312 4.4521484375 l 6
 201.518554688 10.0185546875 202.41015625 21.591796875 205.303710938 36.28515625 c 6
 214.876953125 70.7939453125 l 5
 197.735351562 41.8505859375 l 6
 158.775390625 10.0185546875 125.381835938 -5.7880859375 98 -5.7880859375 c 4
 -3.29296875 -5.7880859375 6.947265625 98.3994140625 19.859375 140.252929688 c 4
 58.8173828125 264.698242188 137.181640625 290.521484375 214.876953125 290.521484375 c 6
 276.09765625 290.521484375 l 5
 284.557617188 284.956054688 l 5
 281.88671875 296.755859375 l 5
 309.26953125 383.579101562 l 6
 322.404296875 426.767578125 299.25 445.690429688 255.83984375 445.690429688 c 4
 219.774414062 445.690429688 179.2578125 419.643554688 163.227539062 356.196289062 c 6
 163.227539062 347.513671875 l 5
 156.103515625 351.520507812 l 5
 105.569335938 351.520507812 l 5
 96.88671875 348.626953125 l 5
 102.674804688 356.196289062 l 6
 118.704101562 406.731445312 159.220703125 493.331054688 264.744140625 493.331054688 c 6
272.981445312 250.227539062 m 5
 260.069335938 245.998046875 l 5
 214.876953125 245.998046875 l 6
 160.333984375 245.998046875 114.029296875 236.202148438 80.634765625 131.791992188 c 4
 69.05859375 92.611328125 61.9345703125 41.8505859375 114.029296875 41.8505859375 c 4
 169.016601562 41.8505859375 216.657226562 88.1591796875 241.146484375 163.405273438 c 6
 264.521484375 238.651367188 l 5
 272.981445312 250.227539062 l 5
EndSplineSet
EndChar

StartChar: b
Encoding: 98 98 34
Width: 377
GlyphClass: 1
Flags: W
HStem: -6.33691 44.1191<100.745 212.818> 439.46 43.0137<234.048 325.98>
DStem2: 2.73633 2.2666 59.4248 2.2666 0.300035 0.953928<17.0086 50.5343 84.8955 440.408 445.569 720.428> 254.199 133.954 314.418 136.822 0.295781 0.955256<-88.6338 298.301>
LayerCount: 2
Fore
SplineSet
214.2734375 698.865234375 m 5
 220.0078125 694.89453125 l 5
 273.168945312 694.89453125 l 5
 281.772460938 697.541992188 l 5
 275.817382812 690.26171875 l 5
 201.259765625 449.606445312 l 5
 184.053710938 412.326171875 l 5
 208.5390625 443.872070312 l 6
 246.037109375 473.87109375 280.228515625 482.473632812 306.036132812 482.473632812 c 4
 366.255859375 482.473632812 409.268554688 439.459960938 380.813476562 347.697265625 c 6
 314.41796875 136.822265625 l 6
 290.154296875 53.6611328125 235.669921875 -6.3369140625 160.893554688 -6.3369140625 c 4
 125.158203125 -6.3369140625 93.6162109375 7.7802734375 75.0869140625 32.4853515625 c 6
 67.8076171875 58.2919921875 l 5
 67.8076171875 30.9423828125 l 5
 59.4248046875 2.2666015625 l 5
 61.6318359375 -6.3369140625 l 5
 54.5732421875 -2.1455078125 l 5
 5.603515625 -2.1455078125 l 5
 -3 -5.0126953125 l 5
 2.736328125 2.2666015625 l 5
 216.479492188 690.26171875 l 5
 214.2734375 698.865234375 l 5
281.55078125 439.459960938 m 4
 245.817382812 439.459960938 183.833984375 397.770507812 162.4375 326.301757812 c 6
 99.3505859375 124.02734375 l 6
 80.6015625 59.6201171875 107.953125 37.7822265625 153.833984375 37.7822265625 c 4
 199.71484375 37.7822265625 231.259765625 62.4853515625 254.19921875 133.954101562 c 6
 324.34375 360.493164062 l 6
 341.770507812 418.284179688 324.34375 439.459960938 281.55078125 439.459960938 c 4
EndSplineSet
EndChar

StartChar: c
Encoding: 99 99 35
Width: 333
GlyphClass: 1
Flags: W
HStem: -6.28418 42.1074<94.1258 188.378> 451.575 43.2227<207.514 301.383>
DStem2: 40.9707 160.148 95.5557 141.214 0.297757 0.954642<-82.2413 307.585>
LayerCount: 2
Fore
SplineSet
350.666992188 345.518554688 m 1
 353.79296875 336.829101562 l 1
 346.205078125 341.5078125 l 1
 294.068359375 341.5078125 l 1
 284.060546875 338.38671875 l 1
 291.186523438 347.075195312 l 2
 324.828125 425.278320312 298.541992188 451.575195312 260.887695312 451.575195312 c 0
 220.338867188 451.575195312 182.896484375 423.9453125 159.279296875 345.518554688 c 2
 95.5556640625 141.213867188 l 2
 72.384765625 64.5693359375 92.8828125 35.8232421875 134.9921875 35.8232421875 c 0
 189.801757812 35.8232421875 210.297851562 79.2724609375 229.013671875 137.201171875 c 2
 226.130859375 145.890625 l 1
 233.255859375 141.213867188 l 1
 284.060546875 141.213867188 l 1
 292.736328125 144.326171875 l 1
 286.943359375 137.201171875 l 2
 266.668945312 63.23046875 229.0234375 -6.2841796875 133.44140625 -6.2841796875 c 0
 20.482421875 -6.2841796875 14.6806640625 74.81640625 40.970703125 160.1484375 c 2
 103.143554688 361.557617188 l 2
 131.884765625 455.580078125 200.064453125 494.797851562 266.680664062 494.797851562 c 0
 328.841796875 494.797851562 386.96875 457.138671875 359.342773438 370.247070312 c 2
 350.666992188 345.518554688 l 1
EndSplineSet
EndChar

StartChar: d
Encoding: 100 100 36
Width: 374
GlyphClass: 1
Flags: W
HStem: -4.24707 42.4893<93.2088 184.668> 435.129 48.0605<205.92 304.159>
DStem2: 35.5635 138.498 97.1484 146.774 0.295534 0.955332<-59.041 304.863> 243.077 134.202 290.657 96.0088 0.279273 0.960212<-115.584 0 0.173778 286.72 292.789 575.167>
LayerCount: 2
Fore
SplineSet
256.76171875 435.12890625 m 4
 229.868164062 435.12890625 182.5859375 419.228515625 148.548828125 310.684570312 c 6
 97.1484375 146.774414062 l 6
 71.8447265625 62.2724609375 94.1240234375 38.2421875 132.477539062 38.2421875 c 4
 171.145507812 38.2421875 225.73046875 76.2763671875 243.077148438 134.202148438 c 6
 243.077148438 134.202148438 314.862304688 363.020507812 314.846679688 363.040039062 c 6
 325.279296875 396.307617188 300.684570312 435.12890625 256.76171875 435.12890625 c 4
473.561523438 683.056640625 m 5
 290.657226562 96.0087890625 l 6
 277.552734375 53.794921875 271.083984375 16.9189453125 269.333007812 5.619140625 c 6
 271.561523438 -2.654296875 l 5
 264.240234375 1.4814453125 l 5
 220.319335938 1.4814453125 l 5
 212.045898438 -2.654296875 l 5
 216.659179688 5.619140625 l 6
 218.728515625 9.9169921875 219.365234375 18.3505859375 222.0703125 31.0810546875 c 6
 233.529296875 64.9775390625 l 5
 213.637695312 36.650390625 l 6
 176.3984375 7.0517578125 147.275390625 -4.2470703125 112.106445312 -4.2470703125 c 4
 13.283203125 -4.2470703125 18.853515625 80.4140625 35.5634765625 138.498046875 c 6
 92.3740234375 322.141601562 l 6
 135.499023438 460.432617188 213.637695312 483.189453125 251.510742188 483.189453125 c 4
 278.245117188 483.189453125 308.482421875 474.75390625 330.6015625 440.540039062 c 6
 335.056640625 412.372070312 l 5
 337.763671875 440.540039062 l 5
 413.829101562 683.540039062 l 5
 411.124023438 691.973632812 l 5
 417.966796875 687.837890625 l 5
 470.321289062 687.837890625 l 5
 479.07421875 690.700195312 l 5
 473.561523438 683.056640625 l 5
EndSplineSet
EndChar

StartChar: e
Encoding: 101 101 37
Width: 358
GlyphClass: 1
Flags: W
HStem: -8.22461 45.2402<88.5597 205.856> 221.751 49.4893<126.207 283.633> 448.827 46.7988<205.384 315.337>
DStem2: 32.3633 135.985 86.1055 112.694 0.286026 0.958222<-60.0386 100.817 165.867 321.204> 289.209 277.063 336.254 224.661 0.286632 0.958041<0 154.849>
LayerCount: 2
Fore
SplineSet
334.450195312 224.661132812 m 1
 336.690429688 215.927734375 l 1
 330.430664062 221.750976562 l 1
 123.501953125 221.750976562 l 1
 113.44140625 227.805664062 l 1
 117.021484375 215.927734375 l 1
 86.10546875 112.694335938 l 2
 72.220703125 66.1162109375 89.033203125 37.015625 141.43359375 37.015625 c 0
 197.192382812 37.015625 228.747070312 61.8623046875 250.693359375 141.806640625 c 2
 250.693359375 150.322265625 l 1
 256.297851562 146.071289062 l 1
 305.802734375 146.071289062 l 1
 314.958984375 148.983398438 l 1
 308.700195312 141.806640625 l 2
 295.7109375 79.10546875 260.341796875 -8.224609375 142.553710938 -8.224609375 c 0
 67.3125 -8.224609375 -0.1064453125 29.6162109375 32.36328125 135.985351562 c 2
 91.2724609375 326.7734375 l 2
 133.818359375 464.716796875 198.313476562 495.625976562 271.987304688 495.625976562 c 0
 398.958007812 495.625976562 388.631835938 399.337890625 369.822265625 336.860351562 c 2
 336.25390625 224.661132812 l 1
 334.450195312 224.661132812 l 1
263.022460938 448.827148438 m 0
 232.791992188 448.827148438 184.635742188 437.397460938 152.614257812 335.506835938 c 2
 135.145507812 278.404296875 l 1
 126.20703125 266.9921875 l 1
 140.75 271.240234375 l 1
 283.6328125 271.240234375 l 1
 292.134765625 265.419921875 l 1
 289.208984375 277.063476562 l 1
 318.540039062 368.884765625 l 2
 334.440429688 424.196289062 313.182617188 448.827148438 263.022460938 448.827148438 c 0
EndSplineSet
EndChar

StartChar: f
Encoding: 102 102 38
Width: 222
GlyphClass: 1
Flags: W
HStem: -0.223633 19.6504G<12.876 16.0195 68.8984 75.9062> 444.939 49.9424<102.359 154.107 232.061 284.499> 665.264 52.8789<276.198 366.21> 694.978 20G<377.349 380.079>
DStem2: 12.876 7.23926 75.9062 7.23926 0.295364 0.955385<12.2235 450.222 522.57 709.531>
LayerCount: 2
Fore
SplineSet
380.079101562 709.329101562 m 5xd0
 365.15625 663.684570312 l 5
 367.416992188 654.87109375 l 5
 360.190429688 660.74609375 l 6
 351.377929688 663.684570312 341.200195312 665.263671875 328.771484375 665.263671875 c 4
 292.616210938 665.263671875 274.774414062 656.451171875 260.086914062 607.8671875 c 6
 227.7578125 502.3359375 l 5
 219.400390625 490.364257812 l 5
 232.060546875 494.881835938 l 5
 299.615234375 494.881835938 l 5
 309.352539062 497.819335938 l 5
 302.56640625 491.715820312 l 5
 289.463867188 447.657226562 l 5
 291.725585938 438.84375 l 5
 284.499023438 444.939453125 l 5
 215.56640625 444.939453125 l 5
 204.9453125 450.815429688 l 5
 207.869140625 438.84375 l 5
 75.90625 7.2392578125 l 5
 75.90625 -1.5732421875 l 5
 68.8984375 2.7138671875 l 5
 16.01953125 2.7138671875 l 5
 7 -0.2236328125 l 5
 12.8759765625 7.2392578125 l 5
 145.500976562 437.484375 l 5
 154.107421875 449.236328125 l 5
 141.004882812 444.939453125 l 5
 86.3046875 444.939453125 l 5
 77.7265625 442.001953125 l 5
 83.6015625 447.657226562 l 5
 97.3935546875 491.715820312 l 5
 95.1318359375 500.529296875 l 5
 102.359375 494.881835938 l 5
 157.94140625 494.881835938 l 5
 168.340820312 489.005859375 l 5
 165.168945312 500.529296875 l 5
 206.73828125 634.306640625 l 6
 229.787109375 712.266601562 284.708984375 718.142578125 335.778320312 718.142578125 c 4xe0
 353.177734375 718.142578125 364.694335938 716.563476562 377.348632812 713.625976562 c 6
 385.485351562 714.977539062 l 5
 380.079101562 709.329101562 l 5xd0
EndSplineSet
EndChar

StartChar: g
Encoding: 103 103 39
Width: 379
GlyphClass: 1
Flags: W
HStem: -181 48<46.0114 153.906> 13 44<96.665 186.347> 447 46<204.145 312.252>
VStem: -20 62<-128.999 -65.0406>
DStem2: 40 147 96 137 0.296805 0.954938<-15.1242 319.681> 316 354 417.079 486 0.293341 0.956008<-496.77 -330.291 -330.234 -298.352 -282.885 38.5321 103.445 138.22>
LayerCount: 2
Fore
SplineSet
-20 -61 m 5
 -14 -63 l 1
 43 -63 l 1
 51 -60 l 1
 46.997551067 -66.9999998387 l 1
 45.2900132773 -73.9943595229 42 -88.3355285849 42 -95 c 0
 42 -134 81 -133 92 -133 c 0
 136 -133 158 -110 168 -97 c 0
 174 -89 178.609559762 -82.2587347065 186 -64 c 0
 196.706779831 -37.5479557127 220.086443016 37.9999991273 220.086443016 37.9999991273 c 1
 231 68 l 1
 205.000002182 44.5931736709 l 1
 205.000002182 44.5931736709 152.843185271 13 114 13 c 0
 105 13 81 13 59 30 c 0
 46 41 32 56 32 92 c 0
 32 114 39 141 40 147 c 0
 55 201 70 255 88 308 c 0
 99 340 111 372 123 404 c 0
 130 418 138 433 147 445 c 0
 171 476 210 493 250 493 c 0
 292 493 316 477 346 453 c 1
 357 486 l 1
 352 494 l 1
 360 489 l 1
 415 489 l 1
 422 491 l 1
 417.07948244 486 l 1
 252 -52 l 2
 249 -61 246 -69 242 -77 c 0
 234 -97 210 -154 144 -174 c 0
 132 -178 118 -181 90 -181 c 0
 80 -181 69 -181 59 -180 c 0
 -9 -174 -20 -136 -20 -105 c 0
 -20 -92.8424922817 -17.4359675297 -67.0000002036 -17.4359675297 -67.0000002036 c 5
 -20 -61 l 5
260 171 m 2
 316 354 l 2
 318 360 323 375 323 393 c 0
 323 401 321 411 318 417 c 0
 308 436 284 447 261 447 c 0
 253 447 242 447 225 439 c 0
 190 422 178 394 165 359 c 2
 96 137 l 1
 92 115 l 2
 90 103 90 100 91 94 c 0
 95 69 117 57 142 57 c 0
 160 57 185 62 212 90 c 0
 235 114 247 142 260 171 c 2
EndSplineSet
EndChar

StartChar: h
Encoding: 104 104 40
Width: 375
GlyphClass: 1
Flags: W
HStem: -4.17285 19.6846G<3.7002 6.9873 59.1611 63.1074 213.27 216.339 268.511 272.457> 437.542 44.0596<233.369 323.253>
DStem2: 3.7002 3.06055 63.1074 3.06055 0.296882 0.954914<17.6369 433.322 450.87 716.24> 213.27 3.06055 272.457 3.06055 0.29308 0.956088<17.3467 431.411>
LayerCount: 2
Fore
SplineSet
214.146484375 695.337890625 m 5
 220.064453125 691.173828125 l 5
 272.67578125 691.173828125 l 5
 281.444335938 694.022460938 l 5
 275.087890625 687.0078125 l 5
 201.212890625 450.475585938 l 5
 184.11328125 419.127929688 l 5
 208.2265625 444.775390625 l 6
 245.493164062 470.421875 281.444335938 481.6015625 307.969726562 481.6015625 c 4
 389.737304688 481.6015625 399.163085938 413.428710938 375.049804688 336.484375 c 6
 272.45703125 3.060546875 l 5
 274.649414062 -5.48828125 l 5
 268.510742188 -1.32421875 l 5
 216.338867188 -1.32421875 l 5
 207.569335938 -4.1728515625 l 5
 213.26953125 3.060546875 l 5
 321.122070312 354.897460938 l 6
 341.729492188 419.127929688 314.546875 437.541992188 286.267578125 437.541992188 c 4
 235.84765625 437.541992188 187.83984375 400.495117188 137.639648438 242.220703125 c 6
 63.107421875 3.060546875 l 5
 66.3955078125 -5.48828125 l 5
 59.1611328125 -1.32421875 l 5
 6.9873046875 -1.32421875 l 5
 -2 -4.1728515625 l 5
 3.7001953125 3.060546875 l 5
 216.338867188 687.0078125 l 5
 214.146484375 695.337890625 l 5
EndSplineSet
EndChar

StartChar: i
Encoding: 105 105 41
Width: 170
GlyphClass: 1
Flags: W
HStem: -20 20G<-1 68.3926> 636.98 68.0771<225.076 257.444>
DStem2: 4.12207 4.46777 65.7227 4.46777 0.297726 0.954651<18.3401 500.939 684.826 729.425>
LayerCount: 2
Fore
SplineSet
281.5546875 700.814453125 m 5
 262.565429688 641.224609375 l 5
 264.798828125 632.293945312 l 5
 257.444335938 636.98046875 l 5
 205.21484375 636.98046875 l 5
 196.278320312 633.862304688 l 5
 202.08203125 641.224609375 l 5
 221.291015625 700.814453125 l 5
 219.055664062 709.294921875 l 5
 225.076171875 705.057617188 l 5
 278.857421875 705.057617188 l 5
 287.575195312 707.9609375 l 5
 281.5546875 700.814453125 l 5
212.134765625 482.98046875 m 5
 218.157226562 489.0078125 l 5
 209.682617188 486.106445312 l 5
 157.45703125 486.106445312 l 5
 150.099609375 491.685546875 l 5
 152.333007812 482.98046875 l 5
 4.1220703125 4.4677734375 l 5
 -1 -2.90234375 l 5
 7.255859375 0 l 5
 61.2548828125 0 l 5
 68.392578125 -4.2373046875 l 5
 65.72265625 4.4677734375 l 5
 212.134765625 482.98046875 l 5
EndSplineSet
EndChar

StartChar: j
Encoding: 106 106 42
Width: 173
GlyphClass: 1
Flags: W
HStem: -186.079 49.8955<-98.6504 -45.374> 470.675 20G<140.509 146.177 199.862 202.45> 635.432 67.5684<208 246.348>
LayerCount: 2
Fore
SplineSet
201.180664062 707.264648438 m 5
 208 703 l 5
 267.5234375 703 l 5
 277.08984375 705.926757812 l 5
 270.638671875 698.818359375 l 5
 251.840820312 639.696289062 l 5
 254.653320312 630.833007812 l 5
 246.34765625 635.431640625 l 5
 188.502929688 635.431640625 l 5
 178.69921875 632.337890625 l 5
 184.852539062 639.696289062 l 5
 203.932617188 698.818359375 l 5
 201.180664062 707.264648438 l 5
136.33984375 490.674804688 m 5
 146.176757812 487.044921875 l 5
 199.862304688 487.044921875 l 5
 206.984375 488.860351562 l 5
 202.450195312 484.040039062 l 5
 26.119140625 -102.41015625 l 6
 25.1240234375 -105.397460938 19.1494140625 -124.315429688 12.1796875 -137.259765625 c 4
 -13.0791015625 -179.9375 -47.5576171875 -187.245117188 -114.549804688 -186.079101562 c 5
 -118.051757812 -187.235351562 l 5
 -115.758789062 -184.473632812 l 5
 -100.836914062 -137.833007812 l 5
 -100.95703125 -131.440429688 l 5
 -98.650390625 -136.18359375 l 5
 -56.21484375 -134.03515625 -44.39453125 -124.783203125 -30.6357421875 -84.4873046875 c 6
 140.508789062 483.354492188 l 5
 136.33984375 490.674804688 l 5
EndSplineSet
EndChar

StartChar: k
Encoding: 107 107 43
Width: 317
GlyphClass: 1
Flags: W
HStem: -0.402344 21G<4.92871 7.55664 60.5371 64.9102 213.257 218.3 274.124 276.752>
DStem2: 4.92871 6.85352 64.9102 6.85352 0.296415 0.955059<17.7794 299.137 307.367 717.668> 209.742 266.82 148.874 275.392 0.233146 -0.972442<0 253.622> 149.733 283.742 209.742 275.392 0.689057 0.724707<35.2977 262.753>
LayerCount: 2
Fore
SplineSet
400.928710938 476.469726562 m 5
 209.7421875 275.391601562 l 5
 201.157226562 272.313476562 l 5
 209.7421875 266.8203125 l 5
 276.751953125 6.853515625 l 5
 282.466796875 -0.40234375 l 5
 274.124023438 2.240234375 l 5
 218.299804688 2.240234375 l 5
 211.055664062 -1.716796875 l 5
 213.256835938 6.853515625 l 5
 148.874023438 275.391601562 l 5
 64.91015625 6.853515625 l 5
 67.78125 -1.716796875 l 5
 60.537109375 2.240234375 l 5
 7.556640625 2.240234375 l 5
 -1 -0.40234375 l 5
 4.9287109375 6.853515625 l 5
 217.65625 692.268554688 l 5
 215.456054688 700.838867188 l 5
 221.169921875 696.661132812 l 5
 274.124023438 696.661132812 l 5
 282.466796875 699.518554688 l 5
 276.751953125 692.268554688 l 5
 149.733398438 283.7421875 l 5
 325.119140625 479.547851562 l 5
 325.119140625 486.577148438 l 5
 329.732421875 480.86328125 l 5
 399.61328125 480.86328125 l 5
 412.571289062 483.71875 l 5
 400.928710938 476.469726562 l 5
EndSplineSet
EndChar

StartChar: l
Encoding: 108 108 44
Width: 172
GlyphClass: 1
Flags: W
DStem2: 6.48926 9.04688 66.376 9.04688 0.296415 0.955059<17.7513 716.216>
LayerCount: 2
Fore
SplineSet
278.002929688 693.075195312 m 1
 283.706054688 700.310546875 l 1
 275.139648438 697.459960938 l 1
 222.29296875 697.459960938 l 1
 216.590820312 701.62890625 l 1
 218.786132812 693.075195312 l 1
 6.4892578125 9.046875 l 1
 1 1.8056640625 l 1
 9.5673828125 4.4423828125 l 1
 62.19921875 4.4423828125 l 1
 69.21484375 0.4931640625 l 1
 66.3759765625 9.046875 l 1
 278.002929688 693.075195312 l 1
EndSplineSet
EndChar

StartChar: m
Encoding: 109 109 45
Width: 572
GlyphClass: 1
Flags: W
HStem: 0.292969 21G<59.834 64.7578 271.607 275.824> 423.289 46.1338<211.942 306.691 421.378 513.881>
DStem2: 4.79492 8.76074 64.7578 8.76074 0.265383 0.964143<15.9131 474.17> 214.773 8.76074 275.824 8.76074 0.261604 0.965175<15.9712 404.756> 415.691 10.1279 476.742 10.1279 0.278272 0.960502<16.9887 408.553>
LayerCount: 2
Fore
SplineSet
125.193359375 476.313476562 m 5
 131.315429688 470.287109375 l 5
 183.44140625 470.287109375 l 5
 191.930664062 473.185546875 l 5
 186.354492188 467.390625 l 6
 184.124023438 461.594726562 183.443359375 450.2265625 178.762695312 431.504882812 c 6
 166.083984375 395.177734375 l 5
 186.354492188 427.049804688 l 5
 229.58984375 470.287109375 268.11328125 469.584960938 282.599609375 469.584960938 c 4
 334.217773438 469.584960938 356.612304688 446.41796875 359.287109375 402.372070312 c 5
 380.489257812 423.2890625 l 6
 423.7265625 466.526367188 480.25 469.422851562 494.735351562 469.422851562 c 4
 562.713867188 469.422851562 596.15625 420.388671875 574.315429688 350.8515625 c 6
 476.7421875 10.1279296875 l 5
 479.435546875 1.6533203125 l 5
 472.524414062 5.890625 l 5
 418.575195312 5.890625 l 5
 410.114257812 2.7685546875 l 5
 415.69140625 10.1279296875 l 5
 517.697265625 362.217773438 l 6
 530.84765625 404.340820312 498.96484375 423.2890625 472.888671875 423.2890625 c 4
 436.940429688 423.2890625 390.9375 393.06640625 355.903320312 294.834960938 c 6
 275.82421875 8.7607421875 l 5
 278.490234375 0.29296875 l 5
 271.607421875 4.5234375 l 5
 217.657226562 4.5234375 l 5
 209.196289062 1.408203125 l 5
 214.7734375 8.7607421875 l 5
 310.623046875 362.392578125 l 6
 323.771484375 404.515625 286.748046875 423.463867188 260.672851562 423.463867188 c 4
 222.784179688 423.463867188 171.556640625 393.625976562 136.56640625 282.189453125 c 6
 64.7578125 8.7607421875 l 5
 66.9619140625 0.29296875 l 5
 59.833984375 4.5234375 l 5
 7.6796875 4.5234375 l 5
 -1 1.408203125 l 5
 4.794921875 8.7607421875 l 5
 105.578125 374.909179688 l 6
 118.728515625 418.146484375 125.196289062 455.814453125 127.424804688 467.403320312 c 6
 125.193359375 476.313476562 l 5
EndSplineSet
EndChar

StartChar: n
Encoding: 110 110 46
Width: 373
GlyphClass: 1
Flags: W
HStem: 441.103 45.6094<233.62 323.231>
DStem2: 6.72852 8.57617 66.2197 8.57617 0.294592 0.955623<17.5256 491.848> 209.44 8.57617 269.593 8.57617 0.297343 0.954771<17.8859 429.495>
LayerCount: 2
Fore
SplineSet
269.592773438 8.576171875 m 5
 381.084960938 369.4921875 l 6
 402.325195312 438.250976562 369.846679688 486.711914062 302.423828125 486.711914062 c 4
 288.322265625 486.711914062 246.678710938 483.848632812 203.711914062 441.102539062 c 6
 183.661132812 409.59375 l 5
 196.440429688 445.5078125 l 6
 200.848632812 464.017578125 201.508789062 475.254882812 203.711914062 480.983398438 c 6
 209.440429688 486.711914062 l 5
 200.848632812 483.848632812 l 5
 149.2890625 483.848632812 l 5
 143.560546875 489.796875 l 5
 145.76171875 480.983398438 l 6
 144.219726562 469.526367188 137.168945312 432.2890625 124.169921875 389.54296875 c 6
 6.728515625 8.576171875 l 5
 1 1.3056640625 l 5
 9.5927734375 4.3896484375 l 5
 61.15234375 4.3896484375 l 5
 68.423828125 0.203125 l 5
 66.2197265625 8.576171875 l 5
 155.017578125 297.880859375 l 6
 189.389648438 408.05078125 243.813476562 441.102539062 281.051757812 441.102539062 c 4
 306.831054688 441.102539062 338.338867188 422.374023438 325.33984375 380.729492188 c 6
 209.440429688 8.576171875 l 5
 203.711914062 1.3056640625 l 5
 212.3046875 4.3896484375 l 5
 265.407226562 4.3896484375 l 5
 272.458007812 0.203125 l 5
 269.592773438 8.576171875 l 5
EndSplineSet
EndChar

StartChar: o
Encoding: 111 111 47
Width: 378
GlyphClass: 1
Flags: W
HStem: -6.98047 47.6133<92.5573 219.383> 442.144 48.9443<201.924 323.748>
DStem2: 32.873 130.992 89.3457 117.037 0.294648 0.955606<-50.1593 329.923> 261.848 148.483 317.889 134.095 0.297875 0.954605<-105.791 276.197>
LayerCount: 2
Fore
SplineSet
317.888671875 134.094726562 m 6
 290.6484375 49.27734375 250.5625 -6.98046875 143.818359375 -6.98046875 c 4
 68.96484375 -6.98046875 1.4248046875 30.4501953125 32.873046875 130.9921875 c 6
 106.619140625 370.166015625 l 6
 130.981445312 448.119140625 205.817382812 491.087890625 267.60546875 491.087890625 c 4
 382.984375 491.087890625 408.453125 424.868164062 382.984375 342.708007812 c 6
 317.888671875 134.094726562 l 6
270.498046875 442.143554688 m 4
 231.520507812 442.143554688 187.002929688 432.17578125 161.09375 351.34375 c 6
 89.345703125 117.037109375 l 6
 72.0732421875 62.115234375 100.868164062 40.6328125 146.7109375 40.6328125 c 4
 207.170898438 40.6328125 233.278320312 53.255859375 261.84765625 148.483398438 c 6
 325.4296875 354.4453125 l 6
 347.1328125 424.870117188 310.8046875 442.143554688 270.498046875 442.143554688 c 4
EndSplineSet
EndChar

StartChar: p
Encoding: 112 112 48
Width: 357
GlyphClass: 1
Flags: W
HStem: -3.29297 46.3975<92.7644 200.521> 452.651 43.5049<215.428 310.184>
DStem2: -55.2285 -127.153 5.16895 -127.153 0.28814 0.957588<17.4029 193.984 231.917 590.661 601.072 637.767> 236.252 121.015 295.947 126.785 0.292411 0.956293<-69.0124 320.237>
LayerCount: 2
Fore
SplineSet
263.538085938 452.651367188 m 0
 221.583984375 452.651367188 172.75390625 412.473632812 152.333984375 349.2109375 c 2
 86.1904296875 132.556640625 l 2
 69.984375 82.1689453125 91.9638671875 43.1044921875 143.907226562 43.1044921875 c 0
 174.094726562 43.1044921875 217.60546875 60.4150390625 236.251953125 121.014648438 c 2
 311.254882812 366.301757812 l 2
 334.340820312 439.997070312 292.396484375 452.651367188 263.538085938 452.651367188 c 0
295.947265625 126.78515625 m 6
 267.088867188 31.556640625 208.928710938 -3.29296875 153.876953125 -3.29296875 c 0
 135.231445312 -3.29296875 97.7275390625 0.0400390625 64.431640625 43.1044921875 c 1
 57.33203125 69.0751953125 l 1
 57.33203125 41.552734375 l 1
 5.1689453125 -127.153320312 l 1
 8.0439453125 -135.810546875 l 1
 0.943359375 -131.373046875 l 1
 -52.5458984375 -131.373046875 l 1
 -61 -134.258789062 l 1
 -55.228515625 -127.153320312 l 1
 106.375976562 392.2734375 l 2
 119.251953125 435.337890625 126.37109375 472.853515625 127.703125 484.396484375 c 1
 125.48046875 493.26953125 l 1
 131.469726562 487.28125 l 1
 184.958007812 487.28125 l 1
 193.627929688 491.71875 l 1
 189.185546875 484.396484375 l 2
 186.965820312 480.400390625 186.069335938 472.854492188 184.958007812 461.532226562 c 2
 174.743164062 431.340820312 l 1
 192.301757812 458.647460938 l 1
 235.364257812 493.276367188 269.973632812 496.15625 284.403320312 496.15625 c 0
 368.088867188 496.15625 388.287109375 426.678710938 366.534179688 357.643554688 c 2
 295.947265625 126.78515625 l 6
EndSplineSet
EndChar

StartChar: q
Encoding: 113 113 49
Width: 379
VWidth: 984
GlyphClass: 1
Flags: W
HStem: -9.79102 46.4873<88.0802 171.417> 449.243 43.5811<204.169 306.446>
DStem2: 30.4873 121.395 87.001 115.141 0.294239 0.955732<-45.2238 335.92> 166.585 -134.714 227.585 -134.714 0.288769 0.957399<17.6149 177.558 208.988 572.256 588.237 651.941>
LayerCount: 2
Fore
SplineSet
30.4873046875 121.39453125 m 0
 54.1689453125 198.71875 77.8486328125 276.04296875 101.530273438 353.3671875 c 0
 122.567382812 423.092773438 185.614257812 492.82421875 269.868164062 492.82421875 c 0
 284.169921875 492.82421875 317.392578125 490.140625 339.701171875 455.0546875 c 2
 340.157226562 427.344726562 l 1
 348.875 457.959960938 l 2
 354.427734375 469.581054688 358.135742188 476.733398438 358.637695312 481.203125 c 2
 358.680664062 488.575195312 l 1
 364.893554688 484.107421875 l 1
 418.525390625 484.107421875 l 1
 428.030273438 490.13671875 l 1
 420.319335938 481.203125 l 2
 414.765625 469.58203125 398.893554688 432.03515625 385.3828125 388.456054688 c 2
 227.584960938 -134.713867188 l 1
 228.661132812 -142.0859375 l 1
 221.737304688 -139.180664062 l 1
 168.077148438 -139.180664062 l 1
 158.46484375 -143.205078125 l 1
 166.584960938 -134.713867188 l 1
 218.33984375 35.134765625 l 1
 235.314453125 62.84375 l 1
 211.9296875 36.6962890625 l 2
 152.0703125 -6.6591796875 112.368164062 -9.791015625 93.373046875 -9.791015625 c 0
 38.171875 -9.791015625 0.7568359375 25.07421875 30.4873046875 121.39453125 c 0
264.176757812 449.243164062 m 0
 235.34765625 449.243164062 185.169921875 436.280273438 163.095703125 362.307617188 c 2
 87.0009765625 115.140625 l 2
 68.62109375 54.1298828125 101.741210938 36.6962890625 132.135742188 36.6962890625 c 0
 184.4296875 36.6962890625 230.431640625 76.0263671875 245.33203125 126.98046875 c 2
 312.087890625 344.650390625 l 2
 330.905273438 408.56640625 306.415039062 449.243164062 264.176757812 449.243164062 c 0
EndSplineSet
EndChar

StartChar: r
Encoding: 114 114 50
Width: 235
GlyphClass: 1
Flags: W
HStem: -1.49023 19.6709G<4.50488 7.39258 59.124 64.1982> 419.642 63.2275<232.678 295.318> 468.617 20G<144.021 147.771 318.645 321.533>
VStem: -1 328.281
DStem2: 4.50488 5.80176 64.1982 5.80176 0.294629 0.955612<17.5874 422.018>
LayerCount: 2
Fore
SplineSet
321.533203125 484.190429688 m 5xb0
 300.078125 419.641601562 l 5
 302.72265625 411.01953125 l 5
 295.653320312 416.551757812 l 6
 288.581054688 419.645507812 276.858398438 419.641601562 273.985351562 419.641601562 c 4xd0
 213.854492188 419.641601562 176.28125 372.338867188 133.172851562 229.971679688 c 6
 64.1982421875 5.8017578125 l 5
 66.41015625 -2.8193359375 l 5
 59.1240234375 1.3837890625 l 5
 7.392578125 1.3837890625 l 5
 -1 -1.490234375 l 5
 4.5048828125 5.8017578125 l 5
 122.350585938 388.02734375 l 6
 135.39453125 431.135742188 142.473632812 468.27734375 144.021484375 479.994140625 c 6
 141.807617188 488.6171875 l 5xb0
 147.771484375 482.869140625 l 5
 199.504882812 482.869140625 l 5xd0
 207.895507812 485.513671875 l 5
 202.364257812 479.994140625 l 6
 200.154296875 472.919921875 197.9609375 457.21875 193.540039062 435.333007812 c 6
 179.15625 397.971679688 l 5
 200.826171875 431.137695312 l 6
 240.837890625 476.8984375 268.241210938 487.069335938 318.64453125 488.6171875 c 6
 327.28125 491.490234375 l 5
 321.533203125 484.190429688 l 5xb0
EndSplineSet
EndChar

StartChar: s
Encoding: 115 115 51
Width: 314
GlyphClass: 1
Flags: W
HStem: -2.19531 44.5186<72.7474 171.819> 451.214 44.9648<190.526 278.796>
VStem: 8 59.5654<48.0493 145.871> 94.8203 180.727<180.76 342.019>
LayerCount: 2
Fore
SplineSet
325.622070312 353.536132812 m 5
 332.920898438 349.102539062 l 5
 329.595703125 357.741210938 l 6
 353.9609375 421.3125 340.903320312 496.178710938 246.1015625 496.178710938 c 4
 179.651367188 496.178710938 94.8203125 452.990234375 94.8203125 342.018554688 c 4
 94.8203125 297.274414062 108.1171875 278.668945312 162.606445312 236.805664062 c 4
 220.41796875 193.612304688 223.28515625 172.125 211.545898438 130.482421875 c 4
 199.584960938 98.5859375 179.651367188 42.3232421875 113.422851562 42.3232421875 c 4
 76.431640625 42.3232421875 67.5654296875 68.4609375 67.5654296875 87.2880859375 c 4
 67.5654296875 104.565429688 79.080078125 130.485351562 86.16796875 149.090820312 c 6
 92.3876953125 156.399414062 l 5
 83.3017578125 153.518554688 l 5
 27.0341796875 149.090820312 l 5
 19.951171875 153.518554688 l 5
 22.16796875 144.879882812 l 6
 13.3076171875 115.86328125 8 100.139648438 8 83.96875 c 4
 8 49.8583984375 29.04296875 -2.1953125 114.098632812 -2.1953125 c 4
 198.932617188 -2.1953125 275.546875 62.701171875 275.546875 180.759765625 c 4
 275.546875 216.642578125 256.731445312 235.478515625 195.375976562 282.877929688 c 4
 143.32421875 323.413085938 147.3203125 344.892578125 160.388671875 385.206054688 c 4
 168.806640625 414.22265625 200.240234375 451.213867188 240.775390625 451.213867188 c 4
 268.684570312 451.213867188 301.241210938 437.038085938 270.895507812 357.741210938 c 6
 265.811523438 350.657226562 l 5
 274.221679688 353.536132812 l 5
 325.622070312 353.536132812 l 5
EndSplineSet
EndChar

StartChar: t
Encoding: 116 116 52
Width: 215
GlyphClass: 1
Flags: W
HStem: -2.6748 47.1006<98.2682 161.563> 447.965 50.0469<98.707 152.833 229.376 273.523>
DStem2: 43.8926 120.967 101.196 101.942 0.293603 0.955927<-46.1971 335.052 420.768 459.751>
LayerCount: 2
Fore
SplineSet
290.495117188 495.068359375 m 5
 277.364257812 450.908203125 l 5
 279.630859375 442.076171875 l 5
 273.5234375 447.96484375 l 5
 211.93359375 447.96484375 l 5
 203.087890625 454.07421875 l 5
 206.044921875 442.076171875 l 5
 101.196289062 101.942382812 l 4
 92.13671875 74.3134765625 91.0146484375 44.42578125 133.813476562 44.42578125 c 4
 147.174804688 44.42578125 161.66015625 46.2392578125 170.717773438 47.822265625 c 6
 180.891601562 53.482421875 l 5
 173.6484375 43.0712890625 l 5
 161.651367188 3.21484375 l 5
 164.609375 -5.3974609375 l 5
 157.366210938 0.4931640625 l 6
 150.119140625 -1.0908203125 142.631835938 -2.6748046875 130.857421875 -2.6748046875 c 4
 23.5185546875 -2.6748046875 24.869140625 59.146484375 43.892578125 120.966796875 c 4
 143.987304688 440.72265625 l 5
 152.833007812 452.497070312 l 5
 138.098632812 447.96484375 l 5
 82.3984375 447.96484375 l 5
 73.552734375 445.021484375 l 5
 79.44140625 450.908203125 l 5
 93.9541015625 495.068359375 l 5
 90.994140625 503.900390625 l 5
 98.70703125 498.01171875 l 5
 155.983398438 498.01171875 l 5
 166.184570312 491.889648438 l 5
 163.25390625 503.900390625 l 5
 180.891601562 559.836914062 l 5
 177.9609375 567.078125 l 5
 185.423828125 564.35546875 l 5
 247.040039062 589.498046875 l 5
 255.859375 598.108398438 l 5
 249.971679688 586.33203125 l 5
 225.063476562 505.489257812 l 5
 216.21875 493.478515625 l 5
 229.375976562 498.01171875 l 5
 288.256835938 498.01171875 l 5
 297.073242188 500.720703125 l 5
 290.495117188 495.068359375 l 5
EndSplineSet
EndChar

StartChar: u
Encoding: 117 117 53
Width: 375
GlyphClass: 1
Flags: W
HStem: -2.41504 43.0127<95.4248 184.467>
DStem2: 35.79 113.826 91.3896 101.03 0.296066 0.955167<-36.685 378.41> 233.659 73.6807 410.771 475.329 0.294633 0.95561<-56.8412 0 11.1223 418.327>
LayerCount: 2
Fore
SplineSet
410.770507812 475.329101562 m 1
 293.189453125 93.9677734375 l 2
 279.955078125 50.73828125 273.118164062 13.4638671875 271.353515625 1.994140625 c 2
 273.561523438 -6.6083984375 l 1
 267.611328125 -2.4150390625 l 1
 215.997070312 -2.4150390625 l 1
 207.408203125 -5.2822265625 l 1
 213.143554688 1.994140625 l 2
 213.143554688 7.94921875 216.006835938 19.201171875 220.196289062 36.625 c 2
 233.659179688 73.6806640625 l 1
 213.143554688 42.138671875 l 2
 170.57421875 -0.87109375 128.661132812 -3.7421875 114.544921875 -3.7421875 c 0
 46.8310546875 -3.7421875 13.7333984375 45.2294921875 35.7900390625 113.826171875 c 2
 147.635742188 475.329101562 l 1
 144.5390625 483.931640625 l 1
 151.592773438 477.981445312 l 1
 204.526367188 477.981445312 l 1
 213.143554688 480.848632812 l 1
 207.408203125 475.329101562 l 1
 91.3896484375 101.030273438 l 2
 78.5966796875 59.3427734375 110.1328125 40.59765625 136.380859375 40.59765625 c 0
 172.994140625 40.59765625 227.689453125 73.685546875 261.875976562 185.512695312 c 2
 350.78125 475.329101562 l 1
 348.573242188 483.931640625 l 1
 356.059570312 477.981445312 l 1
 408.104492188 477.981445312 l 1
 416.046875 480.848632812 l 1
 410.770507812 475.329101562 l 1
EndSplineSet
EndChar

StartChar: v
Encoding: 118 118 54
Width: 316
GlyphClass: 1
Flags: W
HStem: 470.414 20G<100.852 104.443 155.205 158.489 348.859 353.121 409.261 409.74>
DStem2: 68.5654 5.4541 127.963 62.417 0.067469 0.997721<60.8406 478.533>
LayerCount: 2
Fore
SplineSet
96.00390625 490.4140625 m 5
 104.443359375 487.374023438 l 5
 155.205078125 487.374023438 l 5
 163.024414062 489.85546875 l 5
 158.489257812 482.650390625 l 5
 152.78515625 376.169921875 l 5
 140.870117188 233.193359375 l 6
 136.8984375 176.598632812 131.93359375 119.01171875 127.962890625 62.4169921875 c 5
 135.905273438 80.2890625 143.848632812 97.16796875 152.78515625 114.046875 c 4
 160.727539062 128.940429688 169.6640625 143.833007812 177.607421875 159.719726562 c 4
 187.536132812 176.598632812 195.478515625 193.477539062 204.415039062 210.357421875 c 6
 348.859375 484.505859375 l 5
 346.552734375 490.83984375 l 5
 353.12109375 487.374023438 l 5
 409.260742188 487.374023438 l 5
 415.1875 489.328125 l 5
 409.740234375 483.34375 l 5
 149.469726562 4.05078125 l 5
 151.012695312 1.0400390625 l 5
 147.696289062 2.84375 l 5
 69.9716796875 2.84375 l 5
 66 2.22265625 l 5
 68.5654296875 5.4541015625 l 5
 100.8515625 482.896484375 l 5
 96.00390625 490.4140625 l 5
EndSplineSet
EndChar

StartChar: w
Encoding: 119 119 55
Width: 557
GlyphClass: 1
Flags: W
HStem: 1 21G<67.3008 69 148 153.47 311.203 312 392 393.498> 471 20G<115.799 117 173 173.891 312.5 412 574.058 577 633 635.004>
DStem2: 67.3008 4 126 49 0.0999077 0.994997<50.6394 485.429> 207 233 274 250 0.428896 0.903354<-197.81 251.712> 311.203 4 369 53 0.104945 0.994478<54.7949 437.719> 369 53 393.498 3 0.445745 0.89516<0 480.798>
LayerCount: 2
Fore
SplineSet
111 491 m 1
 117 489 l 1
 173 489 l 1
 178 491 l 1
 173.890625 488 l 1
 126 49 l 1
 152 111 178 172 207 233 c 0
 247 319 291 404 334 489 c 1
 412 489 l 1
 412 476 412 463 411 451 c 0
 408 421 403 391 401 361 c 0
 396 312 392 263 387 214 c 0
 382 160 375 106 369 53 c 1
 574.057617188 488 l 1
 570 493 l 1
 577 490 l 1
 633 490 l 1
 639 492 l 1
 635.00390625 488 l 1
 393.498046875 3 l 1
 396 1 l 1
 392 2 l 1
 312 2 l 1
 307 1 l 1
 311.203125 4 l 1
 328 169 l 0
 333 221 337 273 343 324 c 0
 348 363 354 401 360 439 c 1
 332 375 303 312 274 250 c 0
 153.469726562 4 l 1
 162 -2 l 1
 148 1 l 1
 69 1 l 1
 55 -3 l 1
 67.30078125 4 l 1
 115.798828125 487 l 1
 111 491 l 1
EndSplineSet
EndChar

StartChar: x
Encoding: 120 120 56
Width: 341
GlyphClass: 1
Flags: W
HStem: 476.428 20G<140.828 144.935 195.688 201.373 326.888 335.232 396.2 396.753>
DStem2: 201.373 487.532 140.828 486.96 0.122551 -0.992462<0 79.4822 271.27 469.342> 168.744 273.75 182.711 211.897 0.587285 0.80938<-166.768 -41.8597 157.149 169.252 248.426 255.491>
LayerCount: 2
Fore
SplineSet
135.921875 496.427734375 m 5
 144.934570312 494.141601562 l 5
 195.6875 493.309570312 l 5
 207.80078125 496.15625 l 5
 201.373046875 487.532226562 l 5
 213.637695312 388.477539062 l 5
 213.637695312 388.477539062 215.6328125 343.583984375 216.629882812 320.638671875 c 5
 326.887695312 488.927734375 l 5
 323.272460938 497.759765625 l 5
 335.232421875 494.159179688 l 5
 396.200195312 493.323242188 l 5
 406.360351562 495.34375 l 5
 396.752929688 485.790039062 l 5
 364.278320312 444.344726562 l 5
 313.399414062 371.517578125 l 5
 230.596679688 256.791015625 l 5
 259.96484375 13.03515625 l 5
 267.315429688 6.0888671875 l 5
 256.51953125 8.3818359375 l 5
 202.907226562 8.3818359375 l 5
 192.791992188 5.5595703125 l 5
 199.172851562 14.353515625 l 5
 182.7109375 211.897460938 l 5
 52.669921875 14.89453125 l 5
 57.2294921875 6.1162109375 l 5
 45.0673828125 9.37890625 l 5
 -14.8935546875 9.37890625 l 5
 -25 6.560546875 l 5
 -13.615234375 16.7021484375 l 5
 168.744140625 273.75 l 5
 163.755859375 316.6484375 152.782226562 401.446289062 152.782226562 401.446289062 c 5
 140.828125 486.959960938 l 5
 135.921875 496.427734375 l 5
EndSplineSet
EndChar

StartChar: y
Encoding: 121 121 57
Width: 338
GlyphClass: 1
Flags: W
HStem: -186.739 20.4707G<-9.97363 -9.71387 46.0469 51.7148> 471.624 19.001G<97.4922 102 152.239 158.317 346.146 351.981 403.943 406.169>
VStem: 87.6279 60.9863<207.061 306.039> 97.4922 54.1211<296.273 482.374>
DStem2: -9.97363 -181.6 51.7148 -182.005 0.466915 0.884302<28.4449 200.065 432.19 755.156>
LayerCount: 2
Fore
SplineSet
87.6279296875 -6.8935546875 m 5xe0
 97.4921875 482.374023438 l 5
 91.251953125 491.624023438 l 5
 102 489 l 5
 152.239257812 489 l 5
 165.485351562 490.625 l 5
 158.317382812 483.00390625 l 5
 151.61328125 306.0390625 l 5xd0
 148.614257812 207.060546875 l 5
 148.614257812 207.060546875 142.616210938 120.079101562 138.6171875 77.0888671875 c 5
 157.61328125 118.080078125 196.604492188 198.0625 196.604492188 198.0625 c 5
 268.588867188 333.033203125 l 5
 346.146484375 484.32421875 l 5
 344.153320312 492.004882812 l 5
 351.981445312 489 l 5
 403.943359375 489 l 5
 413.270507812 490.944335938 l 5
 406.168945312 482.8828125 l 5
 331.576171875 348.03125 l 5
 209.6015625 115.080078125 l 5
 51.71484375 -182.004882812 l 5
 53.966796875 -187.268554688 l 5
 46.046875 -185.85546875 l 5
 -9.7138671875 -185.85546875 l 5
 -15.9736328125 -186.739257812 l 5
 -9.9736328125 -181.599609375 l 5
 87.6279296875 -6.8935546875 l 5xe0
EndSplineSet
EndChar

StartChar: z
Encoding: 122 122 58
Width: 313
GlyphClass: 1
Flags: W
HStem: -5.25488 21G<215.203 223.079> 1.46387 53.0029<72.0049 215.203> 434.6 55.8945<146.51 286.019>
DStem2: 5.00098 55.4668 72.0049 54.4668 0.590543 0.807006<38.7617 475.863>
LayerCount: 2
Fore
SplineSet
286.018554688 439.491210938 m 5x60
 129.494140625 434.599609375 l 5
 121.8828125 430.866210938 l 5
 128.33984375 442.171875 l 5
 141.41015625 485.225585938 l 5
 142.509765625 496.370117188 l 5
 146.509765625 490.494140625 l 5
 367.024414062 490.494140625 l 5
 351.022460938 436.491210938 l 5
 72.0048828125 54.466796875 l 5
 230.936523438 54.466796875 l 5x60
 242.66796875 59.240234375 l 5
 238.413085938 49.99609375 l 5
 223.079101562 7.22265625 l 5
 221.19140625 -5.2548828125 l 5xa0
 215.203125 1.4638671875 l 5
 -12 1.4638671875 l 5
 5.0009765625 55.466796875 l 5
 62.0048828125 135.471679688 119.0078125 215.4765625 177.01171875 293.481445312 c 4
 213.013671875 342.485351562 250.016601562 390.48828125 286.018554688 439.491210938 c 5x60
EndSplineSet
EndChar

StartChar: braceleft
Encoding: 123 123 59
Width: 494
GlyphClass: 1
Flags: W
HStem: -114.097 43.6191<194.624 243.626> 671.047 44.0039<411.693 462.864>
DStem2: 148.76 -2.66406 200.959 -18.29 0.293878 0.955843<-44.9978 279.52 358.36 726.675>
LayerCount: 2
Fore
SplineSet
539.036132812 710.481445312 m 1
 544.94140625 717.52734375 l 1
 536.384765625 715.05078125 l 1
 462.864257812 715.05078125 l 2
 373.911132812 713.3359375 360.747070312 685.33984375 336.747070312 608.768554688 c 2
 280.385742188 424.5703125 l 2
 257.719726562 351.237304688 254.663085938 345.524414062 166.663085938 328.76171875 c 2
 154.29296875 328.76171875 l 1
 165.524414062 323.0546875 l 2
 227.618164062 260.577148438 227.615234375 256.384765625 205.330078125 181.3359375 c 2
 148.759765625 -2.6640625 l 2
 124.759765625 -78.85546875 142.860351562 -114.096679688 230.860351562 -114.096679688 c 2
 280.385742188 -114.096679688 l 1
 287.24609375 -118.666015625 l 1
 284.385742188 -110.098632812 l 1
 295.987304688 -74.6630859375 l 1
 301.521484375 -67.6171875 l 1
 292.94140625 -70.4775390625 l 1
 243.625976562 -70.4775390625 l 2
 193.721679688 -70.4775390625 185.530273438 -67.623046875 200.958984375 -18.2900390625 c 2
 257.715820312 164.385742188 l 2
 278.096679688 231.052734375 282.666015625 259.42578125 255.80859375 294.6640625 c 2
 241.71875 303.045898438 l 1
 258.668945312 303.045898438 l 2
 301.145507812 317.141601562 312.571289062 342.666992188 332.190429688 407.620117188 c 2
 388.76171875 591.620117188 l 2
 408.571289062 652.381835938 417.14453125 671.046875 448.19140625 671.046875 c 2
 522.0859375 671.046875 l 1
 528.944335938 666.6640625 l 1
 527.037109375 675.046875 l 1
 539.036132812 710.481445312 l 1
EndSplineSet
EndChar

StartChar: bar
Encoding: 124 124 60
Width: 220
GlyphClass: 1
Flags: W
VStem: 63.9746 56.8848<-100 654.001>
LayerCount: 2
Fore
SplineSet
117.766601562 -104.450195312 m 1
 68.4228515625 -124.224609375 l 1
 61.533203125 -130.450195312 l 1
 63.974609375 -121.783203125 l 1
 63.974609375 654.000976562 l 1
 59.986328125 661.32421875 l 1
 68.4228515625 659.778320312 l 1
 117.766601562 680.001953125 l 1
 123.544921875 685.779296875 l 1
 120.859375 677.112304688 l 1
 120.859375 -100 l 1
 126.203125 -105.778320312 l 1
 117.766601562 -104.450195312 l 1
EndSplineSet
EndChar

StartChar: braceright
Encoding: 125 125 61
Width: 494
GlyphClass: 1
Flags: W
HStem: -143.81 43.6191<91.6084 202.418> 641.334 43.8184<332.959 419.248>
DStem2: 224.956 -20.7627 276.76 -37.9004 0.295157 0.955449<-87.6942 280.643 346.886 683.954>
LayerCount: 2
Fore
SplineSet
409.897460938 389.3359375 m 5
 387.611328125 314.478515625 374.057363179 287.434163379 450.099609375 248.000976562 c 6
 460.749023438 242.478515625 l 5
 446.844726562 242.478515625 l 6
 359.225585938 225.716796875 356.178710938 219.811523438 333.703125 146.287109375 c 6
 276.759765625 -37.900390625 l 6
 254.854492188 -114.280273438 239.991210938 -142.477539062 151.038085938 -143.809570312 c 6
 79.23828125 -143.809570312 l 5
 70.47265625 -146.47265625 l 5
 76.37890625 -139.426757812 l 5
 87.4228515625 -104.190429688 l 5
 84.7490234375 -95.6103515625 l 5
 91.6083984375 -100.190429688 l 5
 165.338867188 -100.190429688 l 6
 198.291015625 -100.190429688 206.478515625 -81.5244140625 224.956054688 -20.7626953125 c 6
 281.525390625 163.435546875 l 6
 302.478515625 228.197265625 314.091796875 253.9140625 356.1875 268.008789062 c 6
 372.184570312 268.008789062 l 5
 357.721679688 276.577148438 l 6
 331.0546875 311.624023438 336.767578125 340.002929688 355.814453125 406.668945312 c 6
 412.571289062 589.147460938 l 6
 429.524414062 638.669921875 421.134765625 641.333984375 370.27734375 641.333984375 c 6
 320.565429688 641.333984375 l 5
 312.008789062 638.672851562 l 5
 317.706054688 645.716796875 l 5
 329.145507812 681.141601562 l 5
 327.23828125 689.5234375 l 5
 332.958984375 685.15234375 l 5
 383.4375 685.15234375 l 6
 470.293945312 685.15234375 488.805220143 650.058950079 465.701171875 573.719726562 c 6
 409.897460938 389.3359375 l 5
EndSplineSet
EndChar

StartChar: asciitilde
Encoding: 126 126 62
Width: 769
GlyphClass: 1
Flags: W
HStem: 203.072 52.1543<479.782 554.869> 319.381 52.3477<308.306 384.063>
DStem2: 189.456 250.301 226.859 214.483 0.698441 0.715667<0.490684 161.023> 556.678 278.445 595.452 242.626 0.697583 0.716504<-46.3598 114.266>
LayerCount: 2
Fore
SplineSet
674.77734375 324.498046875 m 5
 595.452148438 242.625976562 l 6
 566.916015625 213.106445312 539.1640625 203.072265625 513.581054688 203.072265625 c 4
 489.374023438 203.072265625 468.51953125 211.924804688 431.32421875 250.30078125 c 4
 367.756835938 316.8203125 362.6328125 319.380859375 349.643554688 319.380859375 c 4
 340.788085938 319.380859375 324.262695312 314.059570312 306.354492188 296.150390625 c 6
 226.859375 214.483398438 l 5
 224.290039062 205.629882812 l 5
 221.744140625 214.483398438 l 5
 189.456054688 245.185546875 l 5
 181 247.743164062 l 5
 189.456054688 250.30078125 l 5
 269.358398438 332.173828125 l 6
 297.697265625 361.497070312 325.635742188 371.728515625 349.643554688 371.728515625 c 4
 375.03125 371.728515625 395.900390625 362.874023438 431.32421875 324.498046875 c 4
 496.661132812 257.979492188 500.788085938 255.2265625 513.581054688 255.2265625 c 4
 523.813476562 255.2265625 539.163085938 260.536132812 556.677734375 278.4453125 c 6
 636.387695312 360.317382812 l 5
 638.958984375 369.169921875 l 5
 641.313476562 360.317382812 l 5
 674.77734375 329.615234375 l 5
 682.057617188 327.056640625 l 5
 674.77734375 324.498046875 l 5
EndSplineSet
EndChar

StartChar: exclam
Encoding: 33 33 63
Width: 277
GlyphClass: 1
Flags: W
HStem: 704.797 8.80566<391.067 392.142> 704.797 5.33887<391.067 392.142>
LayerCount: 2
Fore
SplineSet
391.067382812 704.796875 m 1x80
 169.193359375 56.7998046875 l 1
 171.861328125 46.1376953125 l 1
 163.333007812 53.591796875 l 1
 114.797851562 53.591796875 l 1
 104.380859375 49.6064453125 l 1
 111.314453125 56.7998046875 l 1
 291.588867188 704.796875 l 1
 288.13671875 715.458007812 l 1
 296.666992188 710.135742188 l 1
 388.397460938 710.135742188 l 1x40
 399.075195312 713.602539062 l 1
 392.141601562 704.796875 l 1
 391.067382812 704.796875 l 1x80
156.399414062 -45.6103515625 m 5
 163.333007812 -36.8037109375 l 1
 152.916015625 -40.2724609375 l 1
 68.1181640625 -40.2724609375 l 1
 59.3291015625 -35.2099609375 l 1
 62.51953125 -45.6103515625 l 1
 36.6728515625 -126.940429688 l 1
 30 -135.73046875 l 1
 40.123046875 -132.263671875 l 1
 125.181640625 -132.263671875 l 1
 133.7109375 -137.341796875 l 1
 131.07421875 -126.940429688 l 1
 156.399414062 -45.6103515625 l 5
EndSplineSet
EndChar

StartChar: question
Encoding: 63 63 64
Width: 389
GlyphClass: 1
Flags: W
HStem: 491.783 17.4453G<157.765 160.885 223.981 228.213> 658.449 59.333<290.897 396.394>
DStem2: 145.774 85.3369 207.977 85.3369 0.303122 0.952952<18.8549 206.972> 236.648 293.785 278.886 250.673 0.651354 0.758774<-101.394 55.941 56.5242 252.255>
LayerCount: 2
Fore
SplineSet
318.653320312 297.115234375 m 1
 278.885742188 250.672851562 l 2
 259.107421875 229.33984375 249.098632812 214.228515625 241.098632812 191.116210938 c 2
 207.9765625 85.3369140625 l 1
 210.201171875 75.5634765625 l 1
 203.5546875 82.4462890625 l 1
 149.111328125 82.4462890625 l 1
 139.53515625 79.1162109375 l 1
 145.774414062 85.3369140625 l 1
 183.99609375 207.780273438 l 2
 193.330078125 240.66796875 200.426757812 252.452148438 236.6484375 293.78515625 c 2
 295.975585938 362.896484375 l 2
 350.420898438 427.341796875 378.65234375 476.891601562 395.096679688 528.002929688 c 0
 424.20703125 628.669921875 397.310546875 658.44921875 346.865234375 658.44921875 c 0
 279.310546875 658.44921875 246.657226562 584.002929688 228.212890625 498.224609375 c 2
 230.4375 488.228515625 l 1
 223.981445312 494.89453125 l 1
 160.884765625 494.89453125 l 1
 151.3359375 491.783203125 l 1
 157.764648438 498.224609375 l 2
 187.54296875 633.55859375 230.435546875 717.782226562 350.880859375 717.782226562 c 0
 444.880859375 717.782226562 504.221679688 645.118164062 465.110351562 518.006835938 c 0
 444.888671875 452.006835938 424.66015625 414.002929688 319.548828125 297.115234375 c 2
 318.653320312 297.115234375 l 1
197.098632812 -16.66015625 m 5
 201.612304688 -12 l 0
 203.5546875 -9.9951171875 l 1
 193.328125 -13.330078125 l 1
 117.536132812 -13.330078125 l 1
 109.099609375 -6.6650390625 l 1
 111.32421875 -16.66015625 l 1
 88.4287109375 -92.6630859375 l 1
 82 -100.881835938 l 1
 91.548828125 -97.5517578125 l 1
 167.991210938 -97.5517578125 l 1
 174.204101562 -102.658203125 l 1
 171.979492188 -92.6630859375 l 1
 197.098632812 -16.66015625 l 5
EndSplineSet
EndChar

StartChar: less
Encoding: 60 60 65
Width: 566
GlyphClass: 1
Flags: W
DStem2: 164.641 496.051 58.4404 511.685 0.745717 -0.666263<0 302.794>
LayerCount: 2
Fore
SplineSet
613.470703125 824.5703125 m 1
 600.6953125 812.938476562 l 1
 58.4404296875 517.0234375 l 1
 47 515.689453125 l 1
 58.4404296875 511.684570312 l 1
 364.459960938 238.270507812 l 1
 369.990234375 226.830078125 l 1
 369.990234375 238.270507812 l 1
 392.677734375 288.986328125 l 1
 399.733398438 293.37109375 l 1
 390.962890625 294.896484375 l 1
 164.640625 496.05078125 l 1
 149.005859375 501.581054688 l 1
 164.640625 504.631835938 l 1
 568.282226562 725.233398438 l 1
 576.86328125 722.5625 l 1
 572.478515625 730.952148438 l 1
 605.271484375 810.270507812 l 1
 613.470703125 824.5703125 l 1
EndSplineSet
EndChar

StartChar: greater
Encoding: 62 62 66
Width: 565
GlyphClass: 1
Flags: W
DStem2: 295.25 812.956 267.983 756.33 0.747154 -0.664651<17.2642 320.201>
LayerCount: 2
Fore
SplineSet
291.053710938 824.205078125 m 1
 289.1484375 812.956054688 l 1
 267.983398438 762.048828125 l 1
 259.403320312 757.6640625 l 1
 267.983398438 756.330078125 l 1
 494.49609375 555.17578125 l 1
 509.938476562 549.645507812 l 1
 494.49609375 546.594726562 l 1
 90.853515625 325.8046875 l 1
 83.80078125 328.47265625 l 1
 86.8486328125 320.083007812 l 1
 54.24609375 240.767578125 l 1
 47 226.84765625 l 1
 58.4404296875 238.096679688 l 1
 600.88671875 534.203125 l 1
 601.268554688 534.203125 l 1
 612.517578125 535.345703125 l 1
 602.602539062 539.541992188 l 1
 295.25 812.956054688 l 1
 291.053710938 824.205078125 l 1
EndSplineSet
EndChar

StartChar: period
Encoding: 46 46 67
Width: 202
GlyphClass: 1
Flags: W
HStem: -1.56348 114.957<31.9424 90.1768>
VStem: -12 146.118
LayerCount: 2
Fore
SplineSet
128.306640625 108.946289062 m 1
 95.208984375 2.8896484375 l 1
 97.146484375 -5.822265625 l 1
 90.1767578125 -1.5634765625 l 1
 -3.2822265625 -1.5634765625 l 1
 -12 -4.275390625 l 1
 -6.376953125 2.8896484375 l 1
 26.697265625 108.946289062 l 1
 24.759765625 117.846679688 l 1
 31.9423828125 113.393554688 l 1
 125.211914062 113.393554688 l 1
 134.118164062 116.298828125 l 1
 128.306640625 108.946289062 l 1
EndSplineSet
EndChar

StartChar: comma
Encoding: 44 44 68
Width: 179
GlyphClass: 1
Flags: W
HStem: -40.8115 185.987
VStem: -44 163.084
LayerCount: 2
Fore
SplineSet
111.962890625 136.703125 m 5
 21.8544921875 -31.95703125 l 5
 21.8544921875 -40.8115234375 l 5
 15.884765625 -35.0361328125 l 5
 -35.328125 -35.0361328125 l 5
 -44 -37.9267578125 l 5
 -38.21875 -31.95703125 l 5
 13.3935546875 136.703125 l 5
 10.5029296875 145.17578125 l 5
 17.623046875 140.939453125 l 5
 110.624023438 140.939453125 l 5
 119.083984375 143.63671875 l 5
 111.962890625 136.703125 l 5
EndSplineSet
EndChar

StartChar: quotedbl
Encoding: 34 34 69
Width: 445
VWidth: 1300
GlyphClass: 1
Flags: W
HStem: 451.481 307.264
VStem: 107 325.783
LayerCount: 2
Fore
SplineSet
427.013671875 751.034179688 m 1
 314.158203125 459.192382812 l 1
 314.158203125 451.481445312 l 1
 309.142578125 455.331054688 l 1
 271.540039062 455.331054688 l 1
 264.217773438 452.634765625 l 1
 268.83203125 459.192382812 l 1
 357.954101562 751.034179688 l 1
 356.022460938 758.745117188 l 1
 361.415039062 754.895507812 l 1
 425.083984375 754.895507812 l 1
 432.783203125 757.403320312 l 1
 426.424804688 751.034179688 l 1
 427.013671875 751.034179688 l 1
268.83203125 751.034179688 m 1
 155.034179688 459.192382812 l 1
 156.96484375 451.481445312 l 1
 150.607421875 455.331054688 l 1
 114.323242188 455.331054688 l 1
 107 452.634765625 l 1
 111.827148438 459.192382812 l 1
 199.583007812 751.034179688 l 1
 197.65234375 758.745117188 l 1
 203.844726562 754.895507812 l 1
 266.524414062 754.895507812 l 1
 274.036132812 757.403320312 l 1
 268.83203125 751.034179688 l 1
EndSplineSet
EndChar

StartChar: quotesingle
Encoding: 39 39 70
Width: 274
GlyphClass: 1
Flags: W
HStem: 450.4 283.9
VStem: 107 154.53
LayerCount: 2
Fore
SplineSet
257.069335938 727.17578125 m 1
 151.555664062 457.524414062 l 1
 153.338867188 450.400390625 l 1
 147.639648438 453.95703125 l 1
 113.961914062 453.95703125 l 1
 107 451.465820312 l 1
 111.633789062 457.524414062 l 1
 192.73828125 727.17578125 l 1
 190.954101562 734.30078125 l 1
 196.829101562 730.743164062 l 1
 254.743164062 730.743164062 l 1
 261.530273438 733.060546875 l 1
 257.069335938 727.17578125 l 1
EndSplineSet
EndChar

StartChar: colon
Encoding: 58 58 71
Width: 250
GlyphClass: 1
Flags: W
HStem: 250.152 112.357<147.279 203.729> 358.165 6.98438<241.117 242.062> 358.165 4.34473<241.117 242.062>
DStem2: 36.04 15.8252 134.994 15.8252 0.296093 0.955159<29.2996 114.695 278.795 364.076>
LayerCount: 2
Fore
SplineSet
241.1171875 358.165039062 m 5x40
 207.694335938 254.497070312 l 5
 210.529296875 246.1875 l 5
 203.729492188 250.15234375 l 5
 112.520507812 250.15234375 l 5x80
 104.037109375 247.328125 l 5
 109.891601562 254.497070312 l 5
 141.608398438 358.165039062 l 5x20
 141.608398438 366.474609375 l 5
 147.279296875 362.509765625 l 5x80
 239.225585938 362.509765625 l 5x20
 248.1015625 365.149414062 l 5
 242.061523438 358.165039062 l 5
 241.1171875 358.165039062 l 5x40
168.416015625 119.676757812 m 5
 174.270507812 126.856445312 l 5
 165.581054688 124.021484375 l 5
 74.3720703125 124.021484375 l 5
 67.5947265625 128.366210938 l 5
 67.5947265625 119.676757812 l 5
 36.0400390625 15.8251953125 l 5
 30 8.8408203125 l 5
 38.505859375 11.859375 l 5
 129.715820312 11.859375 l 5
 136.884765625 7.5146484375 l 5
 134.994140625 15.8251953125 l 5
 168.416015625 119.676757812 l 5
EndSplineSet
EndChar

StartChar: semicolon
Encoding: 59 59 72
Width: 251
GlyphClass: 1
Flags: W
HStem: 243.117 114.299<131.399 190.747>
VStem: -5 239.55
LayerCount: 2
Fore
SplineSet
229.3671875 352.99609375 m 5
 194.96875 247.537109375 l 5
 198.040039062 239.083984375 l 5
 190.747070312 243.1171875 l 5
 97.962890625 243.1171875 l 5
 89.5205078125 240.245117188 l 5
 95.078125 247.537109375 l 5
 127.741210938 352.99609375 l 5
 125.819335938 361.44921875 l 5
 131.399414062 357.416015625 l 5
 225.896484375 357.416015625 l 5
 234.549804688 360.1015625 l 5
 228.78125 352.99609375 l 5
 229.3671875 352.99609375 l 5
150.791992188 110.387695312 m 5
 61.078125 -57.8779296875 l 5
 61.078125 -66.330078125 l 5
 55.1220703125 -60.7607421875 l 5
 3.8408203125 -60.7607421875 l 5
 -5 -63.4462890625 l 5
 0.9560546875 -57.8779296875 l 5
 52.26171875 110.387695312 l 5
 49.376953125 119.227539062 l 5
 56.669921875 114.807617188 l 5
 149.055664062 114.807617188 l 5
 158.083007812 117.69140625 l 5
 150.791992188 110.387695312 l 5
EndSplineSet
EndChar

StartChar: equal
Encoding: 61 61 73
Width: 733
GlyphClass: 1
Flags: W
LayerCount: 2
Fore
SplineSet
64.677734375 447.5 m 5
 67.279296875 437.360351562 l 5
 54.01953125 381.458984375 l 5
 47 373.141601562 l 5
 57.400390625 376.51953125 l 5
 755.240234375 376.51953125 l 5
 764.079101562 371.580078125 l 5
 760.698242188 381.458984375 l 5
 775.780273438 437.360351562 l 5
 774.740234375 437.360351562 l 5
 780.719726562 444.119140625 l 5
 771.098632812 440.741210938 l 5
 73.2587890625 440.741210938 l 5
 64.677734375 447.5 l 5
64.677734375 239.500976562 m 5
 67.279296875 229.361328125 l 5
 54.01953125 173.720703125 l 5
 47 167.219726562 l 5
 57.400390625 170.079101562 l 5
 755.240234375 170.079101562 l 5
 764.079101562 163.581054688 l 5
 760.698242188 173.720703125 l 5
 775.780273438 229.361328125 l 5
 774.740234375 229.361328125 l 5
 780.719726562 237.681640625 l 5
 771.098632812 234.819335938 l 5
 73.2587890625 234.819335938 l 5
 64.677734375 239.500976562 l 5
EndSplineSet
EndChar

StartChar: asterisk
Encoding: 42 42 74
Width: 584
VWidth: 1165
GlyphClass: 1
Flags: W
HStem: 265.728 55.2178<39.1602 261.023 324.299 546.16>
LayerCount: 2
Fore
SplineSet
546.16015625 265.727539062 m 2
 448.044921875 268.33984375 388.171875 271.318359375 337.0625 271.318359375 c 2
 321.76171875 274.119140625 l 1
 333.873046875 265.727539062 l 2
 360.36328125 221.333984375 391.150390625 168.541992188 443.193359375 87.0283203125 c 2
 449.341796875 82.736328125 l 1
 442.078125 82.736328125 l 1
 399.15625 57.927734375 l 1
 395.056640625 52.3369140625 l 1
 395.056640625 59.2373046875 l 2
 349.54296875 146.720703125 320.068359375 199.130859375 294.140625 245.018554688 c 2
 290.79296875 260.126953125 l 1
 288.357421875 245.018554688 l 2
 263.546875 199.130859375 236.14453125 146.720703125 188.578125 59.2373046875 c 2
 188.578125 52.3369140625 l 1
 184.2734375 57.927734375 l 1
 141.740234375 82.736328125 l 1
 136.16015625 82.736328125 l 1
 141.740234375 87.0283203125 l 2
 193.037109375 170.03515625 224.767578125 222.82421875 252.5625 265.727539062 c 2
 263.560546875 274.119140625 l 1
 248.2578125 271.318359375 l 2
 196.9609375 271.318359375 136.158203125 268.33984375 39.16015625 265.727539062 c 2
 30.7578125 262.927734375 l 1
 34.85546875 269.827148438 l 1
 34.85546875 316.834960938 l 1
 30.7578125 323.734375 l 1
 39.16015625 320.9453125 l 2
 136.158203125 318.334960938 196.974609375 315.34375 246.779296875 315.34375 c 2
 263.560546875 312.737304688 l 1
 251.05859375 320.9453125 l 2
 224.7578125 365.340820312 193.037109375 417.940429688 141.740234375 499.828125 c 2
 136.16015625 503.926757812 l 1
 141.740234375 503.926757812 l 1
 184.2734375 528.928710938 l 1
 188.578125 534.336914062 l 1
 188.578125 527.619140625 l 2
 236.14453125 441.626953125 263.5625 387.530273438 289.677734375 343.134765625 c 2
 292.66015625 326.53515625 l 1
 295.642578125 343.134765625 l 2
 320.080078125 387.530273438 349.54296875 441.626953125 395.056640625 527.619140625 c 2
 395.056640625 534.336914062 l 1
 399.15625 528.928710938 l 1
 442.078125 503.926757812 l 1
 449.341796875 503.926757812 l 1
 443.193359375 499.828125 l 2
 391.150390625 416.633789062 360.361328125 364.034179688 332.939453125 320.9453125 c 2
 320.07421875 312.737304688 l 1
 335.376953125 315.34375 l 2
 386.673828125 315.34375 448.044921875 318.334960938 546.16015625 320.9453125 c 2
 553.2421875 323.734375 l 1
 548.9609375 316.834960938 l 1
 548.9609375 269.827148438 l 1
 553.2421875 262.927734375 l 1
 546.16015625 265.727539062 l 2
EndSplineSet
EndChar

StartChar: plus
Encoding: 43 43 75
Width: 778
GlyphClass: 1
Flags: W
LayerCount: 2
Fore
SplineSet
788.232421875 348.900390625 m 1
 794.90625 355.55859375 l 1
 784.895507812 352.221679688 l 1
 473.127929688 352.221679688 l 1
 461.572265625 347.33984375 l 1
 466.456054688 358.665039062 l 1
 466.456054688 670.676757812 l 1
 469.57421875 680.672851562 l 1
 463.3359375 673.782226562 l 1
 408.67578125 655.784179688 l 1
 398.909179688 659.12109375 l 1
 403.331054688 650.887695312 l 1
 403.331054688 358.665039062 l 1
 410.465820312 347.33984375 l 1
 397.119140625 352.221679688 l 1
 106.890625 352.221679688 l 1
 98.4541015625 358.665039062 l 1
 100.677734375 348.900390625 l 1
 84.4560546875 294.45703125 l 1
 78 286.223632812 l 1
 87.79296875 289.559570312 l 1
 398.014648438 289.559570312 l 1
 411.333984375 296.233398438 l 1
 404.225585938 282.669921875 l 1
 404.225585938 -27.5517578125 l 1
 401.350585938 -37.33203125 l 1
 409.571289062 -30.888671875 l 1
 464.231445312 -14.21875 l 1
 474.024414062 -17.5546875 l 1
 467.350585938 -7.546875 l 1
 467.350585938 282.669921875 l 1
 462.467773438 296.233398438 l 1
 474.024414062 289.559570312 l 1
 766.232421875 289.559570312 l 1
 774.234375 284.446289062 l 1
 770.899414062 294.45703125 l 1
 788.232421875 348.900390625 l 1
EndSplineSet
EndChar

StartChar: percent
Encoding: 37 37 76
Width: 741
GlyphClass: 1
Flags: W
HStem: -40.958 46.582<505.448 589.837> 228 46.8008<137.837 222.116> 368.434 46.8145<603.347 687.108> 637.389 47.2695<236.167 319.886>
DStem2: 86.7686 340.532 138.09 324.322 0.296843 0.954926<-37.4879 328.918> 154.053 -29.4854 214.138 -30.833 0.545518 0.838099<31.648 838.661> 243.397 343.459 294.5 327.469 0.29718 0.954821<-72.8149 291.051> 454.068 69.9961 505.169 55.3662 0.294916 0.955523<-34.3976 329.718> 612.07 72.9238 663.393 58.0723 0.290916 0.956749<-70.2139 294.136>
LayerCount: 2
Fore
SplineSet
294.5 327.46875 m 6
 275.59375 264.674804688 230.129882812 228 176.11328125 228 c 4
 101.392578125 228 68.9892578125 286.515625 86.7685546875 340.532226562 c 6
 162.844726562 584.955078125 l 6
 181.75 647.973632812 227.434570312 684.658203125 281.450195312 684.658203125 c 4
 357.296875 684.658203125 388.129882812 625.681640625 370.57421875 571.890625 c 6
 294.5 327.46875 l 6
671.9375 672.500976562 m 5
 214.137695312 -30.8330078125 l 5
 214.137695312 -38.265625 l 5
 209.87890625 -33.9794921875 l 5
 156.9921875 -33.9794921875 l 5
 143.942382812 -35.3388671875 l 5
 154.052734375 -29.4853515625 l 5
 610.505859375 674.080078125 l 5
 610.505859375 681.498046875 l 5
 616.357421875 677.005859375 l 5
 669.244140625 677.005859375 l 5
 680.701171875 678.572265625 l 5
 671.9375 672.500976562 l 5
663.392578125 58.072265625 m 6
 642.685546875 -5.845703125 598.780273438 -40.9580078125 543.4140625 -40.9580078125 c 4
 468.69140625 -40.9580078125 437.86328125 17.10546875 454.068359375 69.99609375 c 6
 529.922851562 315.763671875 l 6
 549.280273438 378.784179688 594.513671875 415.248046875 648.529296875 415.248046875 c 4
 724.600585938 415.248046875 755.200195312 356.73046875 739.220703125 302.713867188 c 6
 663.392578125 58.072265625 l 6
281.450195312 637.388671875 m 4
 252.190429688 637.388671875 231.467773438 624.331054688 214.137695312 568.963867188 c 6
 138.08984375 324.322265625 l 6
 127.737304688 290.788085938 146.85546875 274.80078125 176.11328125 274.80078125 c 4
 205.147460938 274.80078125 227.418945312 286.515625 243.397460938 343.458984375 c 6
 319.252929688 587.880859375 l 6
 329.831054688 620.065429688 310.708007812 637.388671875 281.450195312 637.388671875 c 4
648.529296875 368.43359375 m 4
 619.26953125 368.43359375 598.80078125 355.16015625 581.24609375 299.569335938 c 6
 505.168945312 55.3662109375 l 6
 496.391601562 23.181640625 513.930664062 5.6240234375 543.4140625 5.6240234375 c 4
 572.448242188 5.6240234375 594.514648438 17.10546875 612.0703125 72.923828125 c 6
 686.799804688 318.690429688 l 6
 696.927734375 350.874023438 678.01171875 368.43359375 648.529296875 368.43359375 c 4
EndSplineSet
EndChar

StartChar: ampersand
Encoding: 38 38 77
Width: 484
VWidth: 1091
GlyphClass: 1
Flags: W
HStem: 8.75879 57.9521<103.831 317.182> 226.151 8.69629<454.721 455.63> 654.967 58.1758<272.012 335.232>
DStem2: 33.6797 172.548 91.1699 148.486 0.28619 0.958173<-55.947 217.772> 236.182 505.844 188.534 462.769 0.323166 -0.946342<-37.4632 34.7094 114.892 407.089 485.78 533.304> 212.581 650.381 236.182 520.959 0.291781 0.956485<-154.14 28.0696> 333.994 626.558 359.888 505.844 0.291672 0.956518<-163.728 22.4094>
LayerCount: 2
Fore
SplineSet
454.930664062 226.151367188 m 2
 450.807617188 160.639648438 423.791992188 97.865234375 389.890625 66.7109375 c 2
 376.356445312 65.341796875 l 1
 388.268554688 59.3857421875 l 1
 415.083007812 -18.0419921875 l 1
 420.81640625 -25.5927734375 l 1
 411.869140625 -22.6142578125 l 1
 356.89453125 -22.6142578125 l 1
 349.345703125 -26.9765625 l 1
 352.309570312 -18.0419921875 l 1
 336.061523438 26.6279296875 l 1
 336.061523438 41.7548828125 l 1
 328.486328125 29.3818359375 l 2
 301.685546875 17.7001953125 248.3203125 8.7587890625 182.578125 8.7587890625 c 0
 50.177734375 8.7587890625 8.2529296875 89.1689453125 33.6796875 172.547851562 c 2
 72.4072265625 298.993164062 l 2
 99.2080078125 383.977539062 143.85546875 415.129882812 190.127929688 439.181640625 c 2
 205.03125 437.57421875 l 1
 194.713867188 446.509765625 l 1
 188.534179688 462.768554688 l 2
 170.666992188 511.788085938 170.666992188 514.994140625 182.578125 552.331054688 c 2
 212.581054688 650.380859375 l 2
 225.637695312 693.674804688 282.212890625 713.142578125 316.573242188 713.142578125 c 0
 376.359375 713.142578125 410.260742188 666.876953125 395.37109375 622.208984375 c 2
 359.887695312 505.84375 l 2
 346.372070312 464.3828125 322.53125 437.568359375 273.51171875 412.142578125 c 2
 258.635742188 412.142578125 l 1
 270.547851562 404.81640625 l 1
 361.256835938 138.419921875 l 1
 363.549804688 119.16796875 l 1
 369.28125 137.03515625 l 2
 381.422851562 154.90234375 391.716796875 185.836914062 396.0703125 226.151367188 c 2
 391.708007812 234.84765625 l 1
 400.87890625 230.961914062 l 1
 451.491210938 230.961914062 l 1
 460.21484375 234.84765625 l 1
 455.629882812 226.151367188 l 1
 454.930664062 226.151367188 l 2
310.616210938 654.966796875 m 1
 280.838867188 654.966796875 273.51171875 643.043945312 267.5546875 623.802734375 c 2
 236.181640625 520.958984375 l 2
 233.204101562 516.376953125 233.891601562 510.42578125 236.181640625 505.84375 c 2
 248.317382812 473.310546875 l 1
 246.025390625 458.196289062 l 1
 254.97265625 470.556640625 l 2
 289.103515625 488.194335938 295.057617188 499.883789062 303.990234375 526.913085938 c 2
 333.994140625 626.557617188 l 2
 341.32421875 648.77734375 336.2890625 654.966796875 309.947265625 654.966796875 c 1
 310.616210938 654.966796875 l 1
313.609375 95.12109375 m 1
 216.719726562 377.791015625 l 1
 219.012695312 394.2890625 l 1
 210.065429688 380.76953125 l 2
 168.375 356.946289062 146.15625 333.356445312 131.267578125 282.734375 c 2
 91.169921875 148.486328125 l 2
 76.05078125 104.048828125 101.4765625 66.7109375 181.87890625 66.7109375 c 0
 236.85546875 66.7109375 278.564453125 71.0673828125 309.947265625 86.1865234375 c 2
 326.443359375 86.1865234375 l 1
 313.609375 95.12109375 l 1
EndSplineSet
EndChar

StartChar: dollar
Encoding: 36 36 78
Width: 425
VWidth: 1088
GlyphClass: 1
Flags: W
HStem: -6.40234 21G<166.361 234.1> 692.541 67.4639<286.627 360.502>
LayerCount: 2
Fore
SplineSet
483.711914062 550.40234375 m 1
 415.969726562 550.40234375 l 1
 405.5859375 546.935546875 l 1
 412.779296875 555.463867188 l 2
 438.647460938 626.6640625 450.895507812 692.541015625 360.76171875 692.541015625 c 0
 267.161132812 692.541015625 243.173828125 623.204101562 232.5078125 588.538085938 c 0
 211.708007812 522.669921875 216.498046875 501.875976562 303.697265625 413.341796875 c 0
 388.231445312 326.67578125 403.979492188 262.393554688 371.1796875 158.393554688 c 0
 345.045898438 73.328125 289.565429688 -0.5341796875 178.633789062 -6.40234375 c 2
 166.361328125 2.6640625 l 1
 169.84375 -10.92578125 l 1
 145.559570312 -97.8720703125 l 1
 148.229492188 -108.534179688 l 1
 139.439453125 -101.599609375 l 1
 85.8271484375 -101.599609375 l 1
 75.443359375 -104.805664062 l 1
 82.3779296875 -97.8720703125 l 1
 108.255859375 -7.736328125 l 1
 120.49609375 4.2763671875 l 1
 105.033203125 1.0703125 l 2
 6.3662109375 26.935546875 -16.2919921875 87.73046875 26.908203125 213.862304688 c 2
 24.23828125 224.540039062 l 1
 30.912109375 217.606445312 l 1
 98.6533203125 217.606445312 l 1
 109.038085938 221.072265625 l 1
 102.103515625 213.862304688 l 2
 45.0361328125 68.5302734375 102.122070312 56.26171875 167.989257812 56.26171875 c 0
 256.255859375 56.26171875 287.715820312 134.127929688 301.58203125 175.727539062 c 0
 322.115234375 245.328125 325.557617188 283.461914062 230.357421875 377.061523438 c 0
 150.625976562 456.795898438 136.783203125 522.669921875 155.715820312 588.538085938 c 0
 194.115234375 713.336914062 270.1015625 758.405273438 360.501953125 760.004882812 c 2
 370.91796875 751.200195312 l 1
 367.435546875 765.327148438 l 1
 394.649414062 851.997070312 l 1
 391.719726562 862.397460938 l 1
 400.248046875 855.463867188 l 1
 454.122070312 855.463867188 l 1
 464.24609375 858.930664062 l 1
 457.571289062 851.997070312 l 1
 429.577148438 758.393554688 l 1
 417.565429688 746.137695312 l 1
 433.321289062 749.865234375 l 2
 524.788085938 716.798828125 516.255859375 621.3359375 488.790039062 553.870117188 c 2
 492.239257812 545.33984375 l 1
 483.711914062 550.40234375 l 1
EndSplineSet
EndChar

StartChar: numbersign
Encoding: 35 35 79
Width: 517
GlyphClass: 1
Flags: W
HStem: 0.401367 20.0059G<106.824 109.422 155.748 158.514 268.447 271.238 317.369 321.132> 208.933 51.4961<70.2529 163.49 242.213 326.301 404.83 492.704> 367.776 51.4951<118.376 211.005 290.53 374.012 453.148 541.796>
DStem2: 106.824 6.9541 158.514 6.9541 0.294908 0.955526<15.2437 206.374 285.894 372.28 451.782 642.684> 268.447 6.9541 321.132 6.9541 0.295216 0.955431<15.5533 206.432 286.204 372.337 452.091 643.156>
LayerCount: 2
Fore
SplineSet
559.900390625 415.486328125 m 5
 545.58203125 371.755859375 l 5
 548.1796875 364.196289062 l 5
 541.795898438 367.776367188 l 5
 436.83984375 367.776367188 l 5
 427.883789062 374.340820312 l 5
 430.481445312 364.196289062 l 5
 400.850585938 265.59765625 l 5
 393.303710938 255.258789062 l 5
 404.830078125 260.428710938 l 5
 507.409179688 260.428710938 l 5
 514.98046875 263.012695312 l 5
 509.811523438 256.44921875 l 5
 497.071289062 212.912109375 l 5
 499.061523438 205.364257812 l 5
 492.704101562 208.932617188 l 5
 389.130859375 208.932617188 l 5
 379.979492188 215.703125 l 5
 382.577148438 205.364257812 l 5
 321.131835938 6.9541015625 l 5
 323.728515625 -0.5927734375 l 5
 317.369140625 2.9853515625 l 5
 271.23828125 2.9853515625 l 5
 263.495117188 0.4013671875 l 5
 268.447265625 6.9541015625 l 5
 330.086914062 203.969726562 l 5
 337.828125 214.500976562 l 5
 326.30078125 208.932617188 l 5
 226.318359375 208.932617188 l 5
 217.364257812 215.703125 l 5
 220.154296875 205.364257812 l 5
 158.513671875 6.9541015625 l 5
 160.504882812 -0.5927734375 l 5
 155.748046875 2.9853515625 l 5
 109.421875 2.9853515625 l 5
 101.65625 0.4013671875 l 5
 106.82421875 6.9541015625 l 5
 168.26953125 203.969726562 l 5
 176.01171875 214.500976562 l 5
 163.490234375 208.932617188 l 5
 55.7412109375 208.932617188 l 5
 48 206.748046875 l 5
 53.1689453125 212.912109375 l 5
 65.8857421875 256.44921875 l 5
 63.8955078125 264.202148438 l 5
 70.2529296875 260.428710938 l 5
 180.379882812 260.428710938 l 5
 187.951171875 254.071289062 l 5
 185.548828125 264.202148438 l 5
 216.174804688 362.8125 l 5
 223.721679688 373.151367188 l 5
 211.004882812 367.776367188 l 5
 103.452148438 367.776367188 l 5
 95.904296875 365.397460938 l 5
 100.879882812 371.755859375 l 5
 114.978515625 415.486328125 l 5
 112.98828125 423.045898438 l 5
 118.375976562 419.271484375 l 5
 228.500976562 419.271484375 l 5
 236.048828125 412.70703125 l 5
 233.477539062 423.045898438 l 5
 295.092773438 621.4453125 l 5
 293.102539062 629.00390625 l 5
 299.461914062 625.424804688 l 5
 345.592773438 625.424804688 l 5
 353.140625 627.815429688 l 5
 348.166992188 621.4453125 l 5
 286.745117188 424.234375 l 5
 279.002929688 414.102539062 l 5
 290.530273438 419.271484375 l 5
 390.318359375 419.271484375 l 5
 399.466796875 412.70703125 l 5
 396.676757812 423.045898438 l 5
 458.317382812 621.4453125 l 5
 455.525390625 629.00390625 l 5
 461.883789062 625.424804688 l 5
 508.209960938 625.424804688 l 5
 515.7578125 627.815429688 l 5
 510.588867188 621.4453125 l 5
 449.362304688 424.234375 l 5
 441.620117188 414.102539062 l 5
 453.1484375 419.271484375 l 5
 556.915039062 419.271484375 l 5
 564.462890625 421.650390625 l 5
 559.512695312 415.486328125 l 5
 559.900390625 415.486328125 l 5
374.01171875 367.776367188 m 5
 274.221679688 367.776367188 l 5
 265.268554688 374.340820312 l 5
 267.669921875 364.196289062 l 5
 238.233398438 265.59765625 l 5
 230.686523438 255.258789062 l 5
 242.212890625 260.428710938 l 5
 342.026367188 260.428710938 l 5
 350.956054688 254.071289062 l 5
 348.578125 264.202148438 l 5
 377.991210938 362.8125 l 5
 385.755859375 373.151367188 l 5
 374.01171875 367.776367188 l 5
EndSplineSet
EndChar

StartChar: at
Encoding: 64 64 80
Width: 756
GlyphClass: 1
Flags: W
HStem: -75.3418 60.9541<233.374 303.114> 38.9746 60.9531<524.442 595.173> 55.1611 59.5576<312.643 420.209> 319.567 53.5605<385.421 492.338> 453.271 60.7559<378.83 635.295>
DStem2: 495.373 235.029 527.15 163.683 0.299117 0.954217<-89.6335 58.9128 95.0467 142.983> 626.478 180.07 684.235 160.684 0.294201 0.955744<-78.9174 213.972>
LayerCount: 2
Fore
SplineSet
511.9609375 514.026367188 m 0xd8
 259.747070312 514.026367188 166.215820312 352.14453125 132.241210938 240.826171875 c 0
 86.275390625 92.333984375 136.237304688 -75.341796875 303.114257812 -75.341796875 c 2
 623.279296875 -75.341796875 l 1
 630.875 -81.1376953125 l 1
 627.875976562 -72.34375 l 1
 646.0625 -18.984375 l 1
 651.658203125 -11.5888671875 l 1
 642.864257812 -14.3876953125 l 1
 303.114257812 -14.3876953125 l 2
 191.796875 -14.3876953125 151.427734375 96.7314453125 189.798828125 221.639648438 c 0
 229.96875 352.143554688 322.299804688 453.270507812 511.9609375 453.270507812 c 0
 697.82421875 453.270507812 687.033203125 380.522460938 654.856445312 270.403320312 c 2
 626.477539062 180.0703125 l 2
 605.29296875 111.720703125 572.716796875 99.927734375 547.53515625 99.927734375 c 0xd8
 518.157226562 99.927734375 519.755859375 138.501953125 527.150390625 163.682617188 c 2
 592.303710938 371.529296875 l 1
 598.298828125 378.924804688 l 1
 589.705078125 375.927734375 l 1
 541.740234375 375.927734375 l 1
 535.944335938 380.5234375 l 1
 537.94140625 371.529296875 l 1
 524.952148438 325.364257812 l 1
 521.356445312 294.185546875 l 1
 515.359375 325.364257812 l 1
 497.971679688 364.135742188 471.391601562 373.127929688 438.215820312 373.127929688 c 0
 403.2421875 373.127929688 291.522460938 350.745117188 250.153320312 215.444335938 c 0
 220.17578125 123.51171875 272.338867188 55.1611328125 346.083984375 55.1611328125 c 0xb8
 404.2421875 55.1611328125 441.61328125 87.9375 462.397460938 116.1171875 c 1
 471.391601562 144.295898438 l 1
 469.392578125 113.120117188 l 1
 475.588867188 80.5439453125 499.171875 38.974609375 548.13671875 38.974609375 c 0
 619.883789062 38.974609375 663.850585938 93.9326171875 684.833984375 160.68359375 c 1
 684.235351562 160.68359375 l 1
 718.009765625 270.403320312 l 2
 760.379882812 405.704101562 731.999023438 514.026367188 511.9609375 514.026367188 c 0xd8
447.809570312 319.567382812 m 0
 484.383789062 319.567382812 512.560546875 292.787109375 495.373046875 235.029296875 c 0
 469.392578125 151.890625 403.2421875 114.71875 362.671875 114.71875 c 0xb8
 310.7109375 114.71875 294.522460938 147.294921875 310.7109375 203.853515625 c 0
 334.694335938 276.400390625 404.2421875 319.567382812 447.809570312 319.567382812 c 0
EndSplineSet
EndChar

StartChar: slash
Encoding: 47 47 81
Width: 437
GlyphClass: 1
Flags: W
DStem2: -1.21484 -91.8896 65.8965 -93.4434 0.429308 0.903158<27.4082 962.702>
LayerCount: 2
Fore
SplineSet
479.444335938 776.55859375 m 5
 487.446289062 784.5546875 l 5
 475.891601562 781.448242188 l 5
 418.328125 781.448242188 l 5
 411.438476562 786.114257812 l 5
 411.438476562 777.887695312 l 5
 -1.21484375 -91.8896484375 l 5
 -9 -100.110351562 l 5
 2.3388671875 -96.7802734375 l 5
 61.4482421875 -96.7802734375 l 5
 68.12109375 -101.662109375 l 5
 65.896484375 -93.443359375 l 5
 479.444335938 776.55859375 l 5
EndSplineSet
EndChar

StartChar: zero
Encoding: 48 48 82
Width: 436
GlyphClass: 1
Flags: WO
HStem: -11 53.1914<117.326 248.439> 658.786 53.1924<277.268 408.234>
DStem2: 52.3164 186.256 119.255 197.781 0.295104 0.955465<-80.6162 495.74> 296.556 143.037 357.731 135.723 0.297602 0.95469<-86.5468 485.162>
LayerCount: 2
Fore
SplineSet
349.088867188 711.978515625 m 4
 284.149414062 711.978515625 208.125 691.809570312 168.89453125 563.704101562 c 6
 52.31640625 186.255859375 l 6
 9.09765625 46.40234375 75.14453125 -11 172 -11 c 4
 255.334960938 -11 324.486328125 27.78515625 357.731445312 135.72265625 c 6
 480.297851562 528.908203125 l 6
 491.823242188 566.5859375 509.111328125 711.978515625 349.088867188 711.978515625 c 4
344.655273438 658.786132812 m 4
 405.383789062 658.786132812 446.381835938 632.633789062 412.02734375 517.604492188 c 6
 296.555664062 143.037109375 l 6
 275.056640625 73.6650390625 238.047851562 42.19140625 179.091796875 42.19140625 c 4
 105.73046875 42.19140625 84.45703125 85.4111328125 119.254882812 197.78125 c 6
 234.282226562 571.016601562 l 6
 250.240234375 621.548828125 283.040039062 658.786132812 344.655273438 658.786132812 c 4
EndSplineSet
EndChar

StartChar: one
Encoding: 49 49 83
Width: 298
GlyphClass: 1
Flags: W
LayerCount: 2
Fore
SplineSet
397.232421875 703.310546875 m 5
 388.609375 700.212890625 l 5
 339.749023438 700.212890625 l 5
 334.000976562 704.416015625 l 5
 334.000976562 698.666015625 l 5
 306.806640625 670.145507812 253.5234375 638.307617188 216.379882812 618.409179688 c 5
 210.409179688 621.0625 l 5
 212.62109375 615.534179688 l 5
 195.375976562 559.377929688 l 5
 188.078125 549.427734375 l 5
 199.576171875 555.176757812 l 6
 224.1171875 565.126953125 259.935546875 582.370117188 291.330078125 602.490234375 c 5
 314.764648438 629.68359375 l 5
 298.846679688 598.067382812 l 5
 116.4453125 6.203125 l 5
 110.474609375 -1.0947265625 l 5
 118.875976562 2 l 5
 173.706054688 2 l 5
 179.235351562 -2.6416015625 l 5
 179.235351562 6.203125 l 5
 393.25390625 695.791992188 l 5
 397.232421875 703.310546875 l 5
EndSplineSet
EndChar

StartChar: two
Encoding: 50 50 84
Width: 448
GlyphClass: 1
Flags: W
HStem: -19 20G<-2.84668 327.112> 656.288 52.9346<289.986 411.181>
VStem: 427.249 62.418<516.588 640.009>
LayerCount: 2
Fore
SplineSet
359.094726562 709.22265625 m 4
 264.25390625 709.22265625 199.849609375 664.669921875 172.719726562 521.526367188 c 5
 166.986328125 515.571289062 l 5
 175.587890625 518.658203125 l 5
 232.93359375 518.658203125 l 5
 239.991210938 512.923828125 l 5
 237.787109375 521.526367188 l 5
 251.020507812 594.532226562 279.692382812 656.288085938 352.91796875 656.288085938 c 4
 381.590820312 656.288085938 427.249023438 643.275390625 427.249023438 598.720703125 c 4
 427.249023438 567.180664062 410.267578125 492.853515625 328.438476562 402.421875 c 6
 18.767578125 55.4775390625 l 5
 3.107421875 5.4091796875 l 5
 -2.8466796875 -1.8681640625 l 5
 5.7548828125 1 l 5
 321.380859375 1 l 5
 327.112304688 -2.9716796875 l 5
 324.909179688 5.4091796875 l 5
 341.008789062 52.830078125 l 5
 346.524414062 59.888671875 l 5
 338.140625 56.8017578125 l 5
 105.66796875 56.8017578125 l 5
 85.5966796875 51.064453125 l 5
 102.801757812 64.0791015625 l 5
 346.524414062 333.606445312 l 5
 347.40625 333.606445312 l 5
 447.982421875 443.888671875 489.666992188 517.114257812 489.666992188 590.340820312 c 4
 489.666992188 627.615234375 473.786132812 709.22265625 359.094726562 709.22265625 c 4
EndSplineSet
EndChar

StartChar: three
Encoding: 51 51 85
Width: 438
GlyphClass: 1
Flags: W
HStem: -9 48.7676<114.093 239.6> 339.528 59.0566<240.7 302.167> 662.553 51.8965<279.405 398.84>
VStem: 34 65.5459<54.6198 192.309>
LayerCount: 2
Fore
SplineSet
342.9296875 714.44921875 m 4
 217.881835938 714.44921875 174.484375 611.994140625 160.166992188 529.671875 c 5
 154.126953125 522.513671875 l 5
 162.626953125 525.422851562 l 5
 217.8828125 525.422851562 l 5
 223.251953125 521.171875 l 5
 221.013671875 529.671875 l 5
 236.895507812 603.045898438 268.885742188 662.552734375 342.036132812 662.552734375 c 4
 408.474609375 662.552734375 427.043945312 627.876953125 395.500976562 526.98828125 c 4
 366.64453125 433.256835938 340.469726562 398.584960938 252.778320312 398.584960938 c 6
 236.895507812 398.584960938 l 5
 229.737304688 402.833984375 l 5
 231.975585938 394.33203125 l 5
 216.092773438 344 l 5
 210.5 336.84375 l 5
 219.223632812 339.528320312 l 5
 240.700195312 339.528320312 l 6
 299.756835938 339.528320312 348.5234375 328.119140625 299.755859375 168.172851562 c 4
 269.780273438 67.5078125 231.975585938 39.767578125 170.234375 39.767578125 c 4
 126.836914062 39.767578125 99.5458984375 61.6904296875 99.5458984375 103.298828125 c 4
 99.5458984375 127.90625 109.612304688 162.580078125 121.021484375 195.463867188 c 5
 126.834960938 202.844726562 l 5
 118.336914062 199.939453125 l 5
 62.185546875 199.939453125 l 5
 54.8056640625 204.413085938 l 5
 57.041015625 195.463867188 l 5
 44.0673828125 161.23828125 34 122.08984375 34 99.2734375 c 4
 34 61.69140625 54.1328125 -9 170.904296875 -9 c 4
 270.452148438 -9 329.28515625 32.6103515625 369.776367188 162.579101562 c 4
 408.475585938 292.103515625 371.1171875 335.5 333.311523438 359.8828125 c 5
 304.901367188 367.041015625 l 5
 332.640625 367.041015625 l 5
 396.396484375 381.357421875 427.938476562 404.624023438 462.612304688 514.013671875 c 4
 498.627929688 629.219726562 462.611328125 714.44921875 342.9296875 714.44921875 c 4
EndSplineSet
EndChar

StartChar: four
Encoding: 52 52 86
Width: 437
GlyphClass: 1
Flags: W
HStem: -20 20G<195.99 265.206> 229.386 2.66113<407.851 413.618> 696.808 6.87988<472.627 474.18>
DStem2: 201.757 4.4375 262.987 4.4375 0.289793 0.957089<17.7441 175.135 260.021 652.627>
LayerCount: 2
Fore
SplineSet
384.77734375 705.239257812 m 5
 384.77734375 697.916992188 l 5
 31.60546875 232.046875 l 5
 16.9619140625 183.2421875 l 5
 11.1943359375 175.920898438 l 5
 19.8466796875 179.02734375 l 5
 249.231445312 179.02734375 l 5
 262.3203125 183.2421875 l 5
 253.668945312 171.706054688 l 5
 201.756835938 4.4375 l 5
 195.990234375 -2.884765625 l 5
 204.640625 0 l 5
 259.21484375 0 l 5
 265.206054688 -4.2138671875 l 5
 262.987304688 4.4375 l 5
 313.345703125 174.368164062 l 5
 310.681640625 185.904296875 l 5
 320.666992188 179.02734375 l 5
 391.434570312 179.02734375 l 5
 396.981445312 174.368164062 l 5
 394.76171875 183.2421875 l 5
 407.850585938 226.500976562 l 5
 413.618164062 232.046875 l 5
 404.96484375 229.385742188 l 5
 337.3046875 229.385742188 l 5
 323.994140625 224.948242188 l 5
 332.646484375 236.485351562 l 5
 472.626953125 696.807617188 l 5
 474.1796875 696.807617188 l 5
 479.950195312 703.6875 l 5
 471.297851562 700.580078125 l 5
 389.213867188 700.580078125 l 5
 384.77734375 705.239257812 l 5
410.734375 671.963867188 m 5
 394.76171875 627.373046875 l 5
 272.3046875 234.932617188 l 5
 274.965820312 223.395507812 l 5
 266.314453125 229.385742188 l 5
 105.034179688 229.385742188 l 5
 84.625 224.948242188 l 5
 100.59765625 238.037109375 l 5
 387.662109375 630.03515625 l 5
 410.734375 671.963867188 l 5
EndSplineSet
EndChar

StartChar: five
Encoding: 53 53 87
Width: 438
GlyphClass: 1
Flags: W
HStem: -9 50.6826<128.352 252.014> 405.313 48.9111<231.178 344.814> 701.66 21G<230.912 509.999>
VStem: 52.5293 62.4121<55.0903 197.672>
DStem2: 73.9971 199.483 136.852 199.483 0.304514 0.952508<-83.1645 0 229.579 487.2>
LayerCount: 2
Fore
SplineSet
230.912109375 705.8671875 m 5
 233.126953125 697.236328125 l 5
 113.614257812 311.916015625 l 5
 107.857421875 306.161132812 l 5
 116.489257812 309.038085938 l 5
 163.852539062 309.038085938 l 5
 171.379882812 303.0625 l 5
 168.279296875 311.916015625 l 5
 194.173828125 380.96875 250.388671875 405.313476562 294.875 405.313476562 c 4
 361.049804688 405.313476562 369.681640625 355.07421875 330.950195312 232.461914062 c 4
 283.366210938 78.6435546875 257.692382812 41.6826171875 185.541992188 41.6826171875 c 4
 149.6875 41.6826171875 114.94140625 58.9453125 114.94140625 97.4541015625 c 4
 114.94140625 132.202148438 123.573242188 163.629882812 136.8515625 199.483398438 c 5
 142.385742188 206.787109375 l 5
 133.75390625 204.131835938 l 5
 79.3095703125 202.583007812 l 5
 71.7841796875 208.336914062 l 5
 73.9970703125 199.483398438 l 5
 59.6103515625 157.875 52.529296875 122.021484375 52.529296875 101.659179688 c 4
 52.529296875 70.0107421875 71.119140625 -9 182 -9 c 4
 270.971679688 -9 332.94140625 34.1591796875 389.157226562 214.092773438 c 4
 407.748046875 278.717773438 416.379882812 328.958007812 416.379882812 347.770507812 c 4
 416.379882812 367.91015625 403.541992188 454.224609375 315.677734375 454.224609375 c 4
 286.90625 454.224609375 252.602539062 444.043945312 220.732421875 427.002929688 c 5
 197.935546875 400.88671875 l 5
 213.650390625 431.20703125 l 5
 278.275390625 645.66796875 l 5
 275.619140625 657.173828125 l 5
 285.579101562 651.420898438 l 5
 486.760742188 651.420898438 l 5
 494.0625 645.66796875 l 5
 491.407226562 654.298828125 l 5
 505.572265625 697.236328125 l 5
 504.245117188 697.236328125 l 5
 509.999023438 704.759765625 l 5
 501.368164062 701.66015625 l 5
 236.66796875 701.66015625 l 5
 230.912109375 705.8671875 l 5
EndSplineSet
EndChar

StartChar: six
Encoding: 54 54 88
Width: 440
GlyphClass: 1
Flags: W
HStem: -11 50.6992<129.668 248.926> 386.107 50.4766<216.346 335.162> 663.727 47.3506<305.654 422.998>
VStem: 438.95 59.1885<528.586 648.021>
DStem2: 68.1982 189.118 127.161 187.777 0.291924 0.956442<-88.228 204.479 255.845 469.969> 311.421 170.357 368.376 151.594 0.290318 0.95693<-113.41 182.237>
LayerCount: 2
Fore
SplineSet
369.938476562 711.077148438 m 4
 328.172851562 711.077148438 225.87890625 703.9296875 170.04296875 522.795898438 c 6
 68.1982421875 189.118164062 l 6
 21.7431640625 42.380859375 96.564453125 -11 187.243164062 -11 c 4
 276.356445312 -11 329.73828125 36.5712890625 368.375976562 151.59375 c 6
 398.750976562 249.419921875 l 6
 427.5625 344.565429688 410.140625 436.583984375 303.829101562 436.583984375 c 4
 275.016601562 436.583984375 237.716796875 426.30859375 207.342773438 410.67578125 c 5
 180.094726562 384.544921875 l 5
 200.419921875 416.258789062 l 5
 221.861328125 488.177734375 l 6
 272.11328125 649.43359375 325.493164062 663.7265625 368.375976562 663.7265625 c 4
 411.481445312 663.7265625 438.950195312 637.8203125 438.950195312 601.861328125 c 4
 438.950195312 580.196289062 430.2421875 555.850585938 418.850585938 527.0390625 c 5
 413.044921875 519.893554688 l 5
 421.75390625 522.795898438 l 5
 476.25 522.795898438 l 5
 483.3984375 518.328125 l 5
 481.165039062 527.0390625 l 5
 482.280273438 527.0390625 l 5
 493.671875 564.559570312 498.138671875 586.2265625 498.138671875 603.423828125 c 4
 498.138671875 642.063476562 477.815429688 711.077148438 369.938476562 711.077148438 c 4
276.801757812 386.107421875 m 4
 328.618164062 386.107421875 368.823242188 358.859375 340.009765625 263.713867188 c 6
 311.420898438 170.357421875 l 6
 281.26953125 76.998046875 245.086914062 39.69921875 187.688476562 39.69921875 c 4
 118.451171875 39.69921875 95.447265625 84.14453125 127.161132812 187.77734375 c 6
 161.780273438 300.12109375 l 6
 187.689453125 378.961914062 249.330078125 386.107421875 276.801757812 386.107421875 c 4
EndSplineSet
EndChar

StartChar: seven
Encoding: 55 55 89
Width: 437
GlyphClass: 1
Flags: W
HStem: -4.10645 3.10645<32 41.3318>
LayerCount: 2
Fore
SplineSet
191.8515625 703.369140625 m 5
 194.734375 694.723632812 l 5
 178.993164062 647.0546875 l 5
 173.0078125 640.404296875 l 5
 181.654296875 643.065429688 l 5
 403.583984375 643.065429688 l 5
 422.4296875 648.828125 l 5
 407.797851562 635.748046875 l 5
 41.7548828125 3.2109375 l 5
 32 -4.1064453125 l 5
 44.638671875 -1 l 5
 114.032226562 -1 l 5
 119.797851562 -5.6572265625 l 5
 117.580078125 1.66015625 l 5
 470.763671875 629.983398438 l 5
 490.938476562 694.723632812 l 5
 491.604492188 694.723632812 l 5
 497.3671875 702.260742188 l 5
 488.720703125 699.158203125 l 5
 199.168945312 699.158203125 l 5
 191.8515625 703.369140625 l 5
EndSplineSet
EndChar

StartChar: eight
Encoding: 56 56 90
Width: 438
GlyphClass: 1
Flags: W
HStem: -11 51.9082<114.649 243.043> 339.331 27.3906<200.163 210.102> 363.628 27.6094<317.897 326.512> 656.748 53.2344<286.484 402.164>
VStem: 325.186 61.6279<174.289 325.439> 416.854 58.9775<508.21 642.374>
LayerCount: 2
Fore
SplineSet
349.482421875 709.982421875 m 4xbc
 300.666015625 709.982421875 214.51953125 691.208007812 171.4453125 553.374023438 c 4
 137.20703125 445.579101562 145.6015625 409.793945312 185.8046875 374.008789062 c 5
 210.1015625 366.721679688 l 5
 182.93359375 366.721679688 l 5xdc
 129.698242188 349.4921875 92.58984375 323.647460938 53.7138671875 195.53125 c 4
 2.0263671875 32.0732421875 86.845703125 -11 177.411132812 -11 c 4
 262.012695312 -11 320.98828125 22.1328125 365.387695312 161.291015625 c 4
 376.653320312 200.168945312 386.813476562 250.311523438 386.813476562 271.958007812 c 4
 386.813476562 313.485351562 369.5859375 341.09765625 346.61328125 355.235351562 c 5
 317.897460938 363.627929688 l 5
 348.158203125 363.627929688 l 5
 389.90625 374.008789062 429.88671875 412.666015625 455.729492188 493.0703125 c 4
 464.344726562 517.3671875 475.83203125 567.508789062 475.83203125 596.224609375 c 4
 475.83203125 639.739257812 448.661132812 709.982421875 349.482421875 709.982421875 c 4xbc
349.482421875 656.748046875 m 4
 399.625 656.748046875 416.854492188 622.2890625 416.854492188 600.641601562 c 4
 416.854492188 583.412109375 415.52734375 570.602539062 395.6484375 508.751953125 c 4
 362.515625 401.180664062 326.51171875 391.237304688 284.765625 391.237304688 c 4xbc
 214.522460938 391.237304688 197.0703125 427.022460938 230.423828125 536.141601562 c 4
 256.047851562 619.197265625 290.727539062 656.748046875 349.482421875 656.748046875 c 4
250.526367188 339.331054688 m 4xdc
 312.154296875 339.331054688 325.185546875 307.743164062 325.185546875 274.831054688 c 4
 325.185546875 257.821289062 320.987304688 228.884765625 304.862304688 178.522460938 c 4
 274.822265625 85.0849609375 251.62890625 40.908203125 171.4453125 40.908203125 c 4
 117.107421875 40.908203125 79.556640625 67.8564453125 112.690429688 178.522460938 c 4
 157.08984375 324.971679688 200.163085938 339.331054688 250.526367188 339.331054688 c 4xdc
EndSplineSet
EndChar

StartChar: nine
Encoding: 57 57 91
Width: 438
GlyphClass: 1
Flags: W
HStem: -9 48.8115<100.259 228.6> 273.931 48.8125<187.666 312.867> 661.558 50.3574<275.713 395.605>
VStem: 29 58.5293<52.8553 192.546>
DStem2: 129.274 453.278 185.595 437.597 0.297761 0.954641<-79.3259 215.897> 287.193 153.117 339.1 127.496 0.298583 0.954384<-92.5772 -8.95401 -8.62452 148.613 202.983 472.762>
LayerCount: 2
Fore
SplineSet
340.203125 711.915039062 m 4
 251.193359375 711.915039062 196.63671875 664.20703125 159.310546875 549.576171875 c 6
 129.274414062 453.278320312 l 6
 99.236328125 358.747070312 123.751953125 273.930664062 226.67578125 273.930664062 c 4
 255.389648438 273.930664062 294.260742188 283.870117188 323.1953125 300.877929688 c 5
 345.9453125 325.615234375 l 5
 330.263671875 295.358398438 l 5
 287.193359375 153.1171875 l 6
 259.8046875 64.3291015625 209.668945312 39.8115234375 159.310546875 39.8115234375 c 4
 116.462890625 39.8115234375 87.529296875 58.806640625 87.529296875 95.69140625 c 4
 87.529296875 116.233398438 97.6875 161.951171875 107.626953125 192.211914062 c 5
 113.592773438 199.057617188 l 5
 104.7578125 196.407226562 l 5
 50.4228515625 196.407226562 l 5
 44.681640625 200.603515625 l 5
 44.681640625 192.211914062 l 5
 33.4169921875 153.1171875 29 116.232421875 29 98.7822265625 c 4
 29 61.2353515625 49.318359375 -9 156.881835938 -9 c 4
 228.884765625 -9 304.864257812 13.9697265625 339.099609375 127.49609375 c 5
 340.203125 127.49609375 l 5
 459.471679688 512.25 l 6
 505.19140625 658.685546875 429.434570312 711.915039062 340.203125 711.915039062 c 4
336.225585938 661.557617188 m 4
 405.137695312 661.557617188 428.329101562 618.486328125 396.745117188 513.573242188 c 6
 366.265625 414.625976562 l 6
 341.969726562 337.100585938 274.825195312 322.743164062 247.4375 322.743164062 c 4
 195.534179688 322.743164062 156.881835938 344.169921875 185.594726562 437.596679688 c 6
 214.528320312 532.348632812 l 6
 244.346679688 625.775390625 280.568359375 661.557617188 336.225585938 661.557617188 c 4
EndSplineSet
EndChar

StartChar: hyphen
Encoding: 45 45 92
Width: 390
GlyphClass: 1
Flags: W
LayerCount: 2
Fore
SplineSet
43.603515625 277.768554688 m 5
 46.125 270.014648438 l 5
 36.04296875 220.001953125 l 5
 31 213.408203125 l 5
 38.564453125 216.123046875 l 5
 378.5859375 216.123046875 l 5
 385.953125 212.248046875 l 5
 384.01171875 220.001953125 l 5
 394.094726562 270.014648438 l 5
 398.940429688 276.411132812 l 5
 391.379882812 273.893554688 l 5
 49.61328125 273.893554688 l 5
 43.603515625 277.768554688 l 5
EndSplineSet
EndChar

StartChar: parenleft
Encoding: 40 40 93
Width: 194
GlyphClass: 1
Flags: W
HStem: 722.066 5.7207<300.52 301.039>
LayerCount: 2
Fore
SplineSet
266.025390625 729 m 1
 264.29296875 723.279296875 l 1
 206.919921875 650.1328125 156.1328125 557.74609375 119.0390625 474.373046875 c 0
 71.19921875 363.959960938 61.4931640625 211.946289062 69.466796875 84.373046875 c 1
 66 77.787109375 l 1
 72.93359375 82.29296875 l 1
 104.306640625 82.29296875 l 1
 111.06640625 77.787109375 l 1
 106.55859375 84.373046875 l 1
 95.2919921875 313.346679688 194.786132812 534.172851562 300.51953125 722.06640625 c 1
 301.0390625 722.06640625 l 1
 306.5859375 727.787109375 l 1
 298.61328125 725.533203125 l 1
 270.533203125 725.533203125 l 1
 266.025390625 729 l 1
EndSplineSet
EndChar

StartChar: parenright
Encoding: 41 41 94
Width: 190
GlyphClass: 1
Flags: W
LayerCount: 2
Fore
SplineSet
129 729 m 1
 133.5078125 722.068359375 l 1
 144.774414062 494.655273438 45.626953125 273.828125 -60.453125 84.375 c 1
 -66 80.041015625 l 1
 -58.025390625 82.294921875 l 1
 -29.7734375 82.294921875 l 1
 -25.439453125 77.787109375 l 1
 -23.70703125 84.375 l 1
 34.0126953125 156.481445312 84.4541015625 248.868164062 121.720703125 333.28125 c 0
 169.560546875 444.041015625 179.266601562 596.0546875 171.29296875 722.068359375 c 1
 170.599609375 722.068359375 l 1
 173.89453125 729 l 1
 167.134765625 725.53515625 l 1
 135.759765625 725.53515625 l 1
 129 729 l 1
EndSplineSet
EndChar

